<?xml version="1.0" encoding="UTF-8"?>
<svg width="156px" height="53px" viewBox="0 0 156 53" version="1.1" xmlns="http://www.w3.org/2000/svg" xmlns:xlink="http://www.w3.org/1999/xlink">
    <title>Download_on_the_App_Store</title>
    <g id="Page-1" stroke="none" stroke-width="1" fill="none" fill-rule="evenodd">
        <g id="Landing-Page" transform="translate(-259.000000, -2852.000000)" fill-rule="nonzero">
            <g id="Group-9" transform="translate(0.000000, 2484.000000)">
                <g id="Group-8" transform="translate(165.000000, 158.000000)">
                    <g id="Group-2" transform="translate(58.000000, 163.000000)">
                        <g id="icons" transform="translate(36.000000, 47.000000)">
                            <g id="Download_on_the_App_Store" transform="translate(-0.000000, 0.000000)">
                                <g id="Group" transform="translate(0.000000, 0.000000)">
                                    <path d="M12.4298804,2.91599292e-15 C11.9518322,2.91599292e-15 11.47952,2.91599292e-15 11.0027362,0.002768991 C10.603624,0.00536898255 10.2076926,0.012921958 9.80468239,0.0192789373 C8.9293214,0.0295547004 8.05601916,0.106351232 7.19236442,0.249001191 C6.32990138,0.394760327 5.49445562,0.66955747 4.71428324,1.06409854 C3.93506512,1.46197747 3.22307124,1.97898036 2.60413105,2.59635156 C1.98194153,3.21198665 1.46329852,3.92357754 1.06814518,4.70376171 C0.671901246,5.48239304 0.39714442,6.31676825 0.253364272,7.17806967 C0.108217168,8.03828325 0.0301121914,8.90841675 0.0197502893,9.78066121 C0.00765242232,10.1792399 0.00637484585,10.5791446 0,10.9777753 L0,41.0262157 C0.00637484585,41.4298644 0.00765242232,41.8209031 0.0197502893,42.2246818 C0.0301154733,43.096883 0.108220451,43.966973 0.253364272,44.8271433 C0.3967476,45.6889482 0.67152066,46.5238024 1.06814518,47.3027253 C1.4631189,48.0803866 1.98183486,48.7890967 2.60413105,49.4013084 C3.22072457,50.0214245 3.93317863,50.5387791 4.71428324,50.9336135 C5.49445,51.3292098 6.32980558,51.6056425 7.19236442,51.7536508 C8.05618729,51.8951628 8.92942174,51.9719906 9.80474757,51.9834901 C10.2076926,51.99233 10.603624,51.9974 11.0028014,51.9974 C11.4795069,52 11.9518582,52 12.4298804,52 L143.577133,52 C144.045665,52 144.521758,52 144.990289,51.9974 C145.387511,51.9974 145.794902,51.99233 146.192124,51.9834901 C147.065795,51.9726007 147.937385,51.895768 148.799423,51.7536508 C149.664765,51.6046025 150.503115,51.3282429 151.287046,50.9336135 C152.067446,50.5385494 152.779242,50.021209 153.395308,49.4013084 C154.015998,48.7866984 154.535822,48.0785068 154.935701,47.3027253 C155.329347,46.523235 155.601505,45.6884479 155.74279,44.8271433 C155.888163,43.9668547 155.96904,43.0969583 155.984747,42.2246818 C155.989832,41.8209031 155.989832,41.4298644 155.989832,41.0262157 C156,40.5539272 156,40.0842387 156,39.6042803 L156,12.3970977 C156,11.9210263 156,11.4487638 155.989832,10.9777753 C155.989832,10.5791446 155.989832,10.1792399 155.984747,9.78060921 C155.969045,8.90828926 155.888169,8.03834933 155.74279,7.17801767 C155.601109,6.31721545 155.328968,5.4829069 154.935701,4.70370971 C154.130992,3.13991161 152.854952,1.86699309 151.287046,1.06398154 C150.503112,0.670405495 149.664672,0.39568138 148.799423,0.248884191 C147.937534,0.105602121 147.065853,0.0287788462 146.192124,0.0190969379 C145.794902,0.0127529586 145.387511,0.00513498331 144.990289,0.00259999155 C144.521758,2.91599292e-15 144.045665,2.91599292e-15 143.577133,2.91599292e-15 L143.577133,2.91599292e-15" id="Path" fill="#A6A6A6"></path>
                                    <path d="M144.983901,1.1376653 L146.174264,1.15417525 C146.986011,1.16379417 147.795876,1.23445 148.596966,1.36554156 C149.354475,1.49383173 150.088611,1.73386356 150.775234,2.07774425 C152.128185,2.77304256 153.229055,3.87306876 153.923547,5.22364302 C154.263185,5.89900021 154.498417,6.62170598 154.62126,7.36723206 C154.756565,8.17843126 154.832291,8.99839961 154.847835,9.82059708 C154.851615,10.1887559 154.851615,10.5842146 154.851615,10.9777753 C154.861914,11.4652737 154.861914,11.9292812 154.861914,12.3970977 L154.861914,39.6042803 C154.861914,40.0765688 154.861914,40.5374173 154.851615,41.0020357 C154.851615,41.4247944 154.851615,41.8120631 154.846531,42.2106418 C154.831321,43.0181674 154.756858,43.8234997 154.623737,44.620184 C154.502093,45.375561 154.264661,46.1077862 153.919767,46.7911769 C153.576153,47.4573214 153.129336,48.0652578 152.59578,48.5925811 C152.063214,49.130499 151.447211,49.579333 150.771453,49.9218268 C150.086732,50.2676174 149.353677,50.5085672 148.596966,50.6365644 C147.791153,50.7678113 146.976614,50.838686 146.160184,50.8485937 C145.778345,50.8574337 145.378516,50.8625037 144.990289,50.8625037 L143.577133,50.8651037 L11.0090981,50.8625037 C10.6119021,50.8625037 10.2243011,50.8574337 9.83022088,50.8485937 C9.01385182,50.8379869 8.19939081,50.7671167 7.39351754,50.6365644 C6.64208144,50.5075111 5.91414181,50.2674491 5.23370933,49.9242967 C4.5595162,49.5839873 3.94459787,49.137764 3.41251104,48.602721 C2.87272202,48.0739809 2.42332325,47.4607322 2.08212373,46.7872769 C1.73716408,46.109445 1.49843148,45.3828909 1.37424208,44.6329239 C1.24012835,43.8270759 1.16756724,43.0122364 1.15718444,42.1954319 C1.1489193,41.9212628 1.13808598,41.0084057 1.13808598,41.0084057 L1.13808598,10.9777753 C1.13808598,10.9777753 1.14962327,10.0789452 1.15724962,9.8148771 C1.16719108,8.99936642 1.23933024,8.18579143 1.37304272,7.38119401 C1.49746136,6.62917256 1.73637878,5.90052335 2.08152405,5.22047103 C2.42146399,4.5474582 2.86836802,3.93372924 3.40491076,3.40307694 C3.94084948,2.8674256 4.55773456,2.41892669 5.23307054,2.07393526 C5.91193905,1.73188506 6.63850301,1.49351645 7.38842027,1.36681556 C8.19694017,1.23495182 9.01422866,1.16365998 9.83342786,1.15353825 L11.0097368,1.1376653" id="Path" fill="#000000"></path>
                                </g>
                                <g id="_Group_2" transform="translate(120.537629, 11.336483)" fill="#FFFFFF">
                                    <path d="M19.2905085,15.0544841 C19.3190024,12.8490791 20.4784498,10.8119558 22.3626367,9.65682362 C21.1685884,7.95628974 19.2403337,6.91676838 17.1595631,6.85184873 C14.9704228,6.62271148 12.8481466,8.15812349 11.7326008,8.15812349 C10.5954665,8.15812349 8.87790829,6.87459866 7.0283817,6.91254553 C4.59488774,6.99094879 2.38120858,8.33720688 1.19726196,10.458765 C-1.32399609,14.8116969 0.556635582,21.2090411 2.9717896,24.7276226 C4.18014229,26.450572 5.59235967,28.3751508 7.4402176,28.306901 C9.24845761,28.2321122 9.92380018,27.1570807 12.1065005,27.1570807 C14.268942,27.1570807 14.9025548,28.306901 16.7879057,28.2635071 C18.7282315,28.2320992 19.9507287,26.5329008 21.1166867,24.7936364 C21.9848882,23.5659733 22.6529664,22.2091364 23.0961741,20.7733865 C20.7916564,19.8014203 19.2931982,17.5496366 19.2905085,15.0544841 L19.2905085,15.0544841 Z" id="_Path_"></path>
                                    <path d="M15.7294466,4.53779125 C16.7873928,3.27132485 17.3086028,1.64349685 17.18239,-2.30925639e-15 C15.5660835,0.169286083 14.073069,0.939610524 13.0008301,2.15748599 C11.9420447,3.35908455 11.405666,4.93109565 11.5098331,6.52727879 C13.1478124,6.54409653 14.7030392,5.8108293 15.7294466,4.53779125 L15.7294466,4.53779125 Z" id="_Path_2"></path>
                                </g>
                                <g id="Group" transform="translate(12.154054, 23.232497)" fill="#FFFFFF">
                                    <path d="M10.2662395,12.0491018 L4.09554514,12.0491018 L2.6136868,16.4124597 L4.63149326e-15,16.4124597 L5.84478198,0.269112125 L8.5602838,0.269112125 L14.4050658,16.4124597 L11.7468333,16.4124597 L10.2662395,12.0491018 Z M4.73464625,10.0356294 L9.62593901,10.0356294 L7.21469594,2.9542014 L7.14721904,2.9542014 L4.73464625,10.0356294 Z" id="Shape"></path>
                                    <path d="M27.0278081,10.5282108 C27.0278081,14.1857229 25.0646945,16.5356083 22.1022033,16.5356083 C20.5709174,16.615486 19.1285298,15.8156845 18.3885883,14.476415 L18.3325314,14.476415 L18.3325314,20.30609 L15.9098684,20.30609 L15.9098684,4.64267491 L18.254873,4.64267491 L18.254873,6.60028655 L18.2994317,6.60028655 C19.0722516,5.26941397 20.5162001,4.46996147 22.0576185,4.51953931 C25.0532354,4.51953931 27.0278081,6.88085164 27.0278081,10.5282108 Z M24.5376421,10.5282108 C24.5376421,8.14531853 23.302721,6.57870662 21.4185434,6.57870662 C19.5674655,6.57870662 18.322376,8.17831242 18.322376,10.5282108 C18.322376,12.8996891 19.5674655,14.4878679 21.4185434,14.4878679 C23.3027341,14.4878679 24.5376421,12.932696 24.5376421,10.5282108 L24.5376421,10.5282108 Z" id="Shape"></path>
                                    <path d="M40.0184794,10.5282108 C40.0184794,14.1857229 38.0553658,16.5356083 35.0928746,16.5356083 C33.5615887,16.615486 32.1192011,15.8156845 31.3792596,14.476415 L31.3232027,14.476415 L31.3232027,20.30609 L28.9004745,20.30609 L28.9004745,4.64267491 L31.2455182,4.64267491 L31.2455182,6.60028655 L31.2900639,6.60028655 C32.0628782,5.26941317 33.5068211,4.46995596 35.0482376,4.51952631 C38.0439067,4.51953931 40.0184794,6.88085164 40.0184794,10.5282108 Z M37.5283003,10.5282108 C37.5283003,8.14531853 36.2933923,6.57870662 34.4092147,6.57870662 C32.5581368,6.57870662 31.3130473,8.17831242 31.3130473,10.5282108 C31.3130473,12.8996891 32.5581368,14.4878679 34.4092147,14.4878679 C36.2933923,14.4878679 37.5283003,12.932696 37.5283003,10.5282108 Z" id="Shape"></path>
                                    <path d="M48.6042235,11.9145263 C48.783736,13.5154061 50.3432919,14.5665177 52.4744328,14.5665177 C54.5164823,14.5665177 55.9856301,13.5153541 55.9856301,12.0718908 C55.9856301,10.8188638 55.0995526,10.0685973 53.0014983,9.55442295 L50.90347,9.05046659 C47.9307973,8.33445491 46.550754,6.94812642 46.550754,4.69852273 C46.550754,1.91317778 48.9849152,0 52.4413592,0 C55.8621354,0 58.2072052,1.91317778 58.2861412,4.69852273 L55.8404948,4.69852273 C55.694095,3.08748997 54.3586104,2.11504113 52.4069559,2.11504113 C50.4553014,2.11504113 49.1198299,3.09892993 49.1198299,4.53095327 C49.1198299,5.67225857 49.9728077,6.34383638 52.059403,6.85794571 L53.843004,7.29466629 C57.1645073,8.07796575 58.5445506,9.40845942 58.5445506,11.7697457 C58.5445506,14.7899479 56.1320299,16.6815458 52.2949203,16.6815458 C48.704787,16.6815458 46.2808203,14.8343818 46.1242259,11.9144613 L48.6042235,11.9145263 Z" id="Path"></path>
                                    <path d="M63.7730975,1.85732996 L63.7730975,4.64267491 L66.0175647,4.64267491 L66.0175647,6.55585269 L63.7730975,6.55585269 L63.7730975,13.0444046 C63.7730975,14.0524083 64.2225045,14.5221358 65.2091456,14.5221358 C65.4756004,14.5175028 65.741624,14.4988435 66.0061056,14.466236 L66.0061056,16.3679868 C65.5625107,16.4506405 65.1116337,16.4880738 64.6604395,16.4797084 C62.2708501,16.4797084 61.3389362,15.5846873 61.3389362,13.3020768 L61.3389362,6.55585269 L59.6228642,6.55585269 L59.6228642,4.64267491 L61.3390014,4.64267491 L61.3390014,1.85732996 L63.7730975,1.85732996 Z" id="Path"></path>
                                    <path d="M67.3174466,10.5282108 C67.3174466,6.82500382 69.5046184,4.49795938 72.9152522,4.49795938 C76.337332,4.49795938 78.5143223,6.82495182 78.5143223,10.5282108 C78.5143223,14.2415837 76.3487911,16.5584622 72.9152522,16.5584622 C69.4829908,16.5584622 67.3174466,14.2415707 67.3174466,10.5282108 Z M76.0457969,10.5282108 C76.0457969,7.98788904 74.8783527,6.48857791 72.9152391,6.48857791 C70.9521256,6.48857791 69.785972,7.999316 69.785972,10.5282108 C69.785972,13.0786855 70.9521256,14.5665827 72.9152391,14.5665827 C74.8783527,14.5665827 76.0457969,13.0786855 76.0457969,10.5282108 L76.0457969,10.5282108 Z" id="Shape"></path>
                                    <path d="M80.5118001,4.64267491 L82.8224796,4.64267491 L82.8224796,6.6459684 L82.8785366,6.6459684 C83.2007675,5.35635752 84.3857281,4.4688025 85.7175331,4.51951331 C85.9967279,4.51854122 86.2751524,4.54877719 86.5475928,4.60965502 L86.5475928,6.86941167 C86.1951265,6.76200965 85.8274433,6.71269816 85.4590455,6.72342215 C84.7467929,6.69460383 84.057489,6.97766262 83.572127,7.49827464 C83.086765,8.01888667 82.8538364,8.72503862 82.9345022,9.43131335 L82.9345022,16.4124467 L80.5118001,16.4124467 L80.5118001,4.64267491 Z" id="Path"></path>
                                    <path d="M97.7176915,12.9555369 C97.3917792,15.092145 95.3051709,16.5584492 92.6354923,16.5584492 C89.2019534,16.5584492 87.0707994,14.2644116 87.0707994,10.5840586 C87.0707994,6.8922786 89.2134125,4.49794638 92.5336512,4.49794638 C95.7991367,4.49794638 97.8526453,6.73484911 97.8526453,10.3034935 L97.8526453,11.1312268 L89.5164198,11.1312268 L89.5164198,11.2772163 C89.4385885,12.1534546 89.7420053,13.020809 90.3494908,13.6586525 C90.9569762,14.2964961 91.8099791,14.6433517 92.6915232,14.6109905 C93.8672094,14.7208396 94.9756514,14.0476213 95.4172196,12.9555239 L97.7176915,12.9555369 Z M89.5278593,9.44276631 L95.4286656,9.44276631 C95.4705249,8.69323389 95.2120808,7.95781867 94.7101886,7.39830506 C94.2082965,6.83879145 93.504069,6.50101237 92.7524297,6.45927601 C92.6795731,6.45522869 92.6066469,6.45398936 92.5336512,6.45555802 C91.7412075,6.45084461 90.9793426,6.76023916 90.4156582,7.31567834 C89.8519738,7.87111752 89.5326441,8.62710262 89.5278593,9.41732539 C89.5278593,9.4258187 89.5278593,9.43429901 89.5278593,9.44276631 Z" id="Shape"></path>
                                </g>
                                <g id="Group" transform="translate(65.869248, 11.303224)" fill="#FFFFFF">
                                    <path d="M4.25914011,9.6054272 L3.40743984,9.6054272 C1.74919773,9.6054272 0,9.26582931 0,6.97751174 C0.111212622,5.94855393 0.347607862,4.93692011 0.703970707,3.96492753 L1.80582827,4.25945458 L1.64669178,4.76916992 C1.41098818,5.48607106 1.25494044,6.22661437 1.1813541,6.97748574 C1.1813541,8.55170263 2.69187969,8.55170263 3.71417552,8.55170263 L4.42965746,8.55170263 C4.94080537,8.55170263 5.64482823,8.34794129 5.64482823,7.70238939 L5.64482823,3.22858393 L6.86063778,3.22858393 L6.86063778,6.58140303 C7.12249894,6.69221054 7.40503563,6.7460919 7.68941989,6.73945652 L8.109547,6.73945652 L8.109547,7.78174113 L7.68941989,7.78174113 C7.40863069,7.77980077 7.12955629,7.73790853 6.86063778,7.65733153 L6.86063778,7.81593102 C6.860716,8.40445211 6.40622469,9.6054272 4.25914011,9.6054272 Z M3.56657633,2.0054049 C3.16802496,1.98429066 2.85960174,1.6491911 2.87260253,1.25140747 C2.88560331,0.853623847 3.21525293,0.539261731 3.61433721,0.544070743 C4.01342149,0.548879754 4.33535711,0.871093547 4.33871487,1.2690743 C4.34956176,1.66578617 4.03585603,1.99615491 3.63802936,2.0069779 C3.61419865,2.0076279 3.59038097,2.00709923 3.56657633,2.0053919 L3.56657633,2.0054049 Z" id="Shape"></path>
                                    <path d="M9.48137733,6.73946952 C9.34143346,6.24209405 9.27621974,5.72677503 9.2878636,5.21032349 C9.21534614,4.51939271 9.44391313,3.83068275 9.91545058,3.31930061 C10.386988,2.80791846 11.0560709,2.52312762 11.7525824,2.53733717 C13.3655878,2.53733717 13.9906878,3.8512949 13.9906878,5.41472182 C13.9906878,6.56998907 13.5813418,8.13277899 12.0027527,8.13277899 C11.4822134,8.08266256 10.9705181,7.96465581 10.480768,7.78178013 L7.90214941,7.78178013 L7.90214941,6.73949552 L9.48137733,6.73946952 Z M10.7080072,6.78517737 C11.0939014,6.94798482 11.5048909,7.04373364 11.9231779,7.06827745 C12.6271487,7.06827745 12.8207145,6.17325636 12.8207145,5.38044093 C12.8207145,4.6218934 12.6049214,3.53455093 11.6844797,3.53455093 C10.8556976,3.53455093 10.4922271,4.30452543 10.4922271,5.27888526 C10.47679,5.78961434 10.5497862,6.29917321 10.7080072,6.78516437 L10.7080072,6.78517737 Z" id="Shape"></path>
                                    <path d="M22.006724,9.6054272 L21.1550237,9.6054272 C19.4961819,9.6054272 17.7469451,9.26582931 17.7469451,6.97751174 C17.8584652,5.94860601 18.0948519,4.93700896 18.4509158,3.96492753 L19.5534121,4.25945458 L19.3942757,4.76916992 C19.1583392,5.48604088 19.0020853,6.22658742 18.9283253,6.97748574 C18.9283253,8.55170263 20.4394896,8.55170263 21.4617855,8.55170263 L22.1772674,8.55170263 C22.6877765,8.55170263 23.3917994,8.34794129 23.3917994,7.70238939 L23.3917994,0.147450941 L24.607609,0.147450941 L24.607609,6.58141603 C24.8694892,6.69216076 25.1520122,6.74603951 25.4363911,6.73946952 L25.8565182,6.73946952 L25.8565182,7.78175413 L25.4363911,7.78175413 C25.1556088,7.77972564 24.8765468,7.73783528 24.607609,7.65734453 L24.607609,7.81594402 C24.6076611,8.40445211 24.1531698,9.6054272 22.006724,9.6054272 Z" id="Path"></path>
                                    <path d="M29.9431985,2.59445899 L29.9431985,5.77716064 C29.9431985,7.12476226 29.136057,7.78175413 27.5344975,7.78175413 L25.6490554,7.78175413 L25.6490554,6.73946952 L27.4899518,6.73946952 C28.4549523,6.73946952 28.7159429,6.32051988 28.7159429,5.6070562 L28.7159429,2.59445899 L29.9431985,2.59445899 Z M26.899177,10.3188909 C26.5007072,10.2974553 26.192575,9.9622149 26.2057899,9.56450237 C26.2190048,9.16678985 26.548715,8.85262456 26.9477338,8.85753909 C27.3467525,8.86245362 27.6685809,9.1846436 27.6719413,9.58256028 C27.677505,9.78555964 27.5966755,9.98142893 27.4494432,10.1217268 C27.3022108,10.2620247 27.1023234,10.3336508 26.8992161,10.3188909 L26.899177,10.3188909 Z M28.8075503,10.3188909 C28.4089045,10.298112 28.1001706,9.96315064 28.1129504,9.56528343 C28.1257301,9.16741622 28.4553275,8.8528437 28.8544897,8.85754752 C29.2536518,8.86225134 29.5757025,9.18450302 29.5790501,9.58256028 C29.5898821,9.97927694 29.2761571,10.3096359 28.8783255,10.3204379 C28.8547468,10.3210792 28.8311768,10.3205635 28.8076155,10.3188909 L28.8075503,10.3188909 Z" id="Shape"></path>
                                    <path d="M30.849652,9.48100461 C31.0228501,9.50219562 31.1971277,9.51342882 31.3716202,9.5146485 C32.3722755,9.5146485 32.8713255,8.93700838 32.8713255,7.77031417 L32.8713255,3.21715696 L34.0985942,3.21715696 L34.0985942,6.73945652 L35.2227311,6.73945652 L35.2227311,7.78174113 L34.0871351,7.78174113 C34.1006652,8.55392436 33.8204707,9.30257349 33.3029117,9.87710032 C32.7508592,10.3376828 32.0462084,10.5760591 31.3270745,10.5455061 C31.0686147,10.5414298 30.8106025,10.5225662 30.5543102,10.4890083 L30.849652,9.48100461 Z M33.427671,2.11838754 C33.0292012,2.09695199 32.721069,1.76171155 32.7342839,1.36399902 C32.7474988,0.966286498 33.077209,0.652121216 33.4762278,0.657035744 C33.8752465,0.661950272 34.1970749,0.984140252 34.2004353,1.38205693 C34.2061234,1.58510021 34.125327,1.78105049 33.9780568,1.92137735 C33.8307865,2.0617042 33.6308159,2.13328355 33.427671,2.11838754 L33.427671,2.11838754 Z" id="Shape"></path>
                                    <path d="M39.2533415,7.78174113 C38.7636015,7.76659302 38.2846598,7.6344573 37.8567548,7.39643538 C37.2687286,7.71033136 36.6009387,7.84435518 35.9369224,7.78174113 L35.0165459,7.78174113 L35.0165459,6.73945652 L36.0057421,6.73945652 C36.9363783,6.73945652 37.118433,6.592193 37.118433,5.9129972 L37.118433,2.59445899 L38.3342425,2.59445899 L38.3342425,6.53570818 C38.6208717,6.67313442 38.9353992,6.74285825 39.2534197,6.73946952 L40.014751,6.73946952 L40.014751,7.78175413 L39.2533415,7.78174113 Z M37.6747132,1.46140867 C37.2762434,1.43997312 36.9681112,1.10473269 36.9813261,0.70702016 C36.9945411,0.309307634 37.3242513,-0.00485764924 37.72327,5.68789109e-05 C38.1222888,0.00497140706 38.4441171,0.327161387 38.4474775,0.725078064 C38.4531656,0.928121345 38.3723692,1.12407163 38.225099,1.26439848 C38.0778288,1.40472534 37.8778581,1.47630468 37.6747132,1.46140867 L37.6747132,1.46140867 Z" id="Shape"></path>
                                    <path d="M42.9211331,2.59445899 L42.9211331,5.77716064 C42.9211331,7.12476226 42.1152692,7.78175413 40.5137098,7.78175413 L39.8084354,7.78175413 L39.8084354,6.73946952 L40.4679125,6.73946952 C41.432913,6.73946952 41.6939036,6.32051988 41.6939036,5.6070562 L41.6939036,2.59445899 L42.9211331,2.59445899 Z M41.1146139,1.46140867 C40.7161441,1.43997312 40.4080119,1.10473269 40.4212269,0.70702016 C40.4344418,0.309307634 40.764152,-0.00485764924 41.1631707,5.68789109e-05 C41.5621895,0.00497140706 41.8840179,0.327161387 41.8873782,0.725078064 C41.8930663,0.928121345 41.8122699,1.12407163 41.6649997,1.26439848 C41.5177295,1.40472534 41.3177588,1.47630468 41.1146139,1.46140867 Z M43.0229873,1.46140867 C42.6245175,1.43997312 42.3163853,1.10473269 42.3296002,0.70702016 C42.3428151,0.309307634 42.6725253,-0.00485764924 43.0715441,5.68789109e-05 C43.4705628,0.00497140706 43.7923912,0.327161387 43.7957516,0.725078064 C43.8014397,0.928121345 43.7206433,1.12407163 43.573373,1.26439848 C43.4261028,1.40472534 43.2261322,1.47630468 43.0229873,1.46140867 L43.0229873,1.46140867 Z" id="Shape"></path>
                                </g>
                            </g>
                        </g>
                    </g>
                </g>
            </g>
        </g>
    </g>
</svg>