<svg width="540" height="418" viewBox="0 0 540 418" fill="none" xmlns="http://www.w3.org/2000/svg">
<style>
    #tanslate_2 , #tanslate_1 , #puls , #rotate_1 , #rotate_2 , #rotate_3 {
        transform-origin: center;
        transform-box: fill-box;
    }
    #rotate_1 , #rotate_2 , #rotate_3 {
        animation: spin 2s linear infinite;
    }
    #tanslate_2 , #tanslate_1{
        animation: translateX 2s linear infinite;
    }
    #puls {
        animation: bounce-in-fwd 2s linear infinite;
    }
    @keyframes bounce-in-fwd {
    0% {
      transform: scale(.9);
      animation-timing-function: ease-in;
    }
    38% {
      transform: scale(1);
      animation-timing-function: ease-out;
    }
    55% {
      transform: scale(0.7);
      animation-timing-function: ease-in;
    }
    72% {
      transform: scale(1);
      animation-timing-function: ease-out;
    }
    81% {
      transform: scale(0.84);
      animation-timing-function: ease-in;
    }
    89% {
      transform: scale(1);
      animation-timing-function: ease-out;
    }
    95% {
      transform: scale(0.95);
      animation-timing-function: ease-in;
    }
    100% {
      transform: scale(1);
      animation-timing-function: ease-out;
    }
  }

   @keyframes spin {
    0% {
      transform: rotate(0deg);
    }
  
    100% {
      transform: rotate(360deg);
    }
  }

  @keyframes translateX {
  
    0%,
    100% {
      transform: translateX(2px);
    }
  
    50% {
      transform: translateX(-2px);
    }
  }
</style>
<g id="Refer_and_Earn 1">
<g id="Page-1">
<g id="Landing-Page">
<g id="Group-9">
<g id="Group">
<path id="rotate_3" d="M308.691 183.325L305.021 178.019L298.569 178.033C298.231 178.034 297.923 177.843 297.773 177.541C297.623 177.239 297.657 176.877 297.862 176.609L301.775 171.48L299.763 165.348C299.658 165.027 299.744 164.675 299.985 164.439C300.227 164.202 300.581 164.124 300.9 164.236L306.988 166.372L312.2 162.568C312.472 162.368 312.835 162.341 313.134 162.498C313.433 162.654 313.618 162.967 313.609 163.305L313.466 169.756L318.695 173.537C318.968 173.735 319.106 174.071 319.049 174.404C318.993 174.736 318.752 175.008 318.429 175.105L312.25 176.955L310.27 183.096C310.167 183.42 309.888 183.656 309.552 183.705C309.216 183.754 308.881 183.606 308.691 183.325Z" fill="white"/>
<path id="rotate_1" d="M478.981 66.3811L482.384 58.5048L477.823 51.2377C477.585 50.8577 477.583 50.3757 477.818 49.9939C478.053 49.6121 478.484 49.3965 478.931 49.4374L487.475 50.2377L492.979 43.6545C493.267 43.3109 493.724 43.1602 494.16 43.2656C494.596 43.371 494.934 43.7144 495.033 44.1516L496.912 52.5236L504.874 55.7232C505.29 55.8905 505.576 56.2798 505.61 56.7274C505.645 57.175 505.422 57.6034 505.036 57.8324L497.653 62.2059L497.071 70.7661C497.04 71.2142 496.758 71.606 496.343 71.7768C495.927 71.9476 495.451 71.8677 495.114 71.5707L488.673 65.9012L480.351 67.9932C479.915 68.1021 479.456 67.9546 479.165 67.6125C478.874 67.2704 478.803 66.7931 478.981 66.3811Z" fill="#FF8B85"/>
<path id="rotate_2" d="M34.6335 282.876L30.268 274.526L20.9134 273.388C20.4234 273.329 20.0094 272.997 19.846 272.532C19.6827 272.066 19.7985 271.548 20.1446 271.197L26.7388 264.465L24.9311 255.219C24.8353 254.735 25.0232 254.238 25.4155 253.939C25.8078 253.64 26.3362 253.59 26.7776 253.81L35.2197 258L43.4563 253.423C43.8872 253.182 44.4176 253.207 44.8234 253.488C45.2292 253.769 45.4398 254.256 45.3661 254.744L43.988 264.065L50.8854 270.484C51.2473 270.819 51.3869 271.331 51.2453 271.804C51.1036 272.276 50.7054 272.627 50.2187 272.708L40.9273 274.279L36.9541 282.823C36.7468 283.27 36.3032 283.561 35.8103 283.572C35.3174 283.583 34.861 283.313 34.6335 282.876Z" fill="#FF8B85"/>
<path id="Path" d="M533.46 82.2329L533.57 86.796L526.241 87.7831L525.577 94.4755L520.217 96.1105L521.045 98.8231L528.214 96.6364L528.844 90.2945L536.459 89.2672L536.296 82.401L533.46 82.2329Z" fill="white"/>
<path id="Shape" d="M127.89 35.5181C128.329 32.4951 131.109 30.3806 134.14 30.7639C136.374 31.0635 138.208 32.6808 138.783 34.8604C139.359 37.0399 138.563 39.3515 136.768 40.7152C134.973 42.0789 132.532 42.2255 130.587 41.0866C128.641 39.9477 127.574 37.7481 127.885 35.5153L127.89 35.5181ZM130.84 27.3157L132.308 3.27155C132.366 2.31886 132.812 1.43179 133.543 0.817503C134.274 0.203219 135.224 -0.0844807 136.173 0.0215999L138.565 0.290274C139.514 0.396277 140.377 0.886806 140.954 1.64724C141.531 2.40767 141.77 3.37139 141.616 4.3132L137.772 28.0987L130.84 27.3157Z" fill="#F48C7F"/>
<g id="tanslate_1">
<g id="Group 2">
<g id="Group 1">
<g id="Path_2">
<path id="Vector" d="M485.81 308.567C490.35 306.678 494.755 304.481 498.995 301.991C499.533 301.703 501.768 300.061 502.086 299.836C507.896 303.284 510.018 306.229 514.595 310.847C511.208 311.031 509.774 308.254 508.476 308.548C506.908 308.897 501.98 312.203 494.27 318.166C492.935 313.845 489.05 311.67 485.81 308.567Z" fill="white"/>
<path id="Vector_2" d="M392.546 376.083C393.617 380.825 395.146 385.451 397.111 389.897C397.27 390.239 398.291 390.504 398.464 390.854C394.092 396.006 392.201 404.58 386.884 408.325C387.266 404.955 389.528 398.627 389.459 397.299C389.376 395.697 386.934 390.287 382.335 381.693C386.808 381.097 388.946 378.762 392.546 376.083Z" fill="white"/>
<path id="Vector_3" d="M395.309 391.315C395.589 390.549 396.177 389.934 396.931 389.621C397.685 389.307 398.535 389.324 399.276 389.666C400.686 390.56 402.564 391.534 403.964 392.506C404.928 393.025 405.552 394.009 405.61 395.103C405.495 395.906 386.874 417.68 384.487 417.996C382.1 418.312 386.513 399.893 389.13 398.005C391.458 396.322 392.626 398.058 395.309 391.315Z" fill="#3A3B61"/>
<path id="Vector_4" d="M501.531 302.005C500.827 301.593 500.327 300.904 500.153 300.106C499.98 299.308 500.149 298.474 500.619 297.807C501.75 296.58 503.047 294.909 504.253 293.703C504.938 292.85 506.018 292.414 507.104 292.554C507.874 292.811 525.967 315.026 525.85 317.43C525.734 319.834 508.403 312.199 507.009 309.285C505.767 306.683 507.686 305.851 501.531 302.005Z" fill="#3A3B61"/>
<path id="Vector_5" d="M399.671 294.916C399.671 294.916 436.401 344.405 442.793 344.862C448.771 345.293 495.098 319.463 495.098 319.463L489.073 306.127L451.977 319.463L426.147 270.585L399.671 294.916Z" fill="#D05F59"/>
<path id="Vector_6" d="M420.816 253.098C420.816 253.098 427.54 254.698 431.382 264.942C435.225 275.187 428.796 283.699 412.693 298.545C397.013 312.999 381.527 326.576 381.527 326.576L394.24 378.913L383.674 387.877C383.674 387.877 359.184 334.687 358.471 322.023C358.199 317.187 395.84 261.105 395.84 261.105L420.816 253.098Z" fill="#EB7D77"/>
<path id="Vector_7" d="M392.398 189.017L371.92 200.469L355.695 208.26C355.695 208.26 351.735 194.796 353.062 188.197C353.394 187.264 353.888 186.397 354.521 185.635C357.197 181.623 351.479 175.389 351.479 175.389C351.479 175.389 348.03 174.409 345.692 180.093C343.354 185.777 347.674 188.188 347.674 188.188C347.674 188.188 342.742 205.396 344.807 217.929C345.889 224.499 362.316 219.675 375.404 214.017C382.025 211.157 388.414 207.791 394.516 203.946L392.398 189.017Z" fill="white"/>
<path id="Vector_8" d="M397.003 187.054C396.349 186.527 395.443 186.443 394.704 186.843C392.168 187.786 367.587 201.288 367.587 201.288C367.587 201.288 369.793 213.099 375.556 216.728L387.94 212.948L397.413 189.007C397.688 188.334 397.526 187.56 397.003 187.054Z" fill="#04BCC8"/>
<path id="Vector_9" d="M453.596 136.567C444.266 130.851 432.631 131.955 425.706 139.634C420.029 137.482 413.731 137.659 408.184 140.127C397.752 144.999 388.518 157.719 396.381 166.954C394.71 179.214 402.045 186.343 411.181 187.158C416.15 197.125 433.763 198.149 443.895 189.938C452.267 193.174 462.212 191.778 468.401 185.74C469.711 184.334 471.1 183.004 472.561 181.756C471.963 182.057 495.887 178.882 494.795 157.799C493.684 136.284 467.932 128.031 453.596 136.567Z" fill="#3A3B61"/>
<path id="Vector_10" d="M411.197 185.421L426.384 186.258L423.863 207.476C423.863 207.476 416.534 227.896 419.523 237.714C422.512 247.533 425.393 254.683 425.393 254.683C425.393 254.683 416.747 264.608 392.518 262.585C392.518 262.585 392.839 244.976 392.518 239.64C392.198 234.304 386.007 212.106 386.861 207.09C387.715 202.074 393.053 188.201 394.439 187.027C395.826 185.853 401.324 185.266 401.324 185.266L411.197 185.421Z" fill="#04BCC8"/>
<path id="Vector_11" d="M411.911 173.77C411.911 173.77 411.651 175.486 411.403 177.69C411.021 180.383 410.907 183.108 411.062 185.825C411.532 189.205 408.349 198.117 401.163 198.442C393.977 198.767 401.012 188.599 401.555 185.244C402.098 181.889 402.094 169.67 402.094 169.67L411.911 173.77Z" fill="white"/>
<path id="Vector_12" d="M402.159 174.842C402.159 172.02 402.1 169.67 402.1 169.67L411.916 173.77C411.916 173.77 411.647 175.543 411.394 177.793C408.001 178.857 404.305 177.676 402.159 174.842Z" fill="#B0B1C6"/>
<path id="Vector_13" d="M412.654 148.568C415.382 149.691 417.62 151.751 418.964 154.377C421.119 158.714 421.516 170.77 412.173 175.261C402.83 179.753 397.013 171.128 397.803 163.489C398.594 155.849 401.462 145.867 412.654 148.568Z" fill="white"/>
<path id="Vector_14" d="M396.108 160.865C396.628 162.793 397.963 164.111 399.085 163.808C400.207 163.505 400.697 161.696 400.177 159.768C399.657 157.839 398.322 156.522 397.198 156.825C396.075 157.128 395.589 158.937 396.108 160.865Z" fill="#F7F7F9"/>
<path id="Vector_15" d="M417.839 164.993C416.977 166.9 417.316 168.921 418.605 169.506C419.894 170.091 421.641 169.02 422.507 167.112C423.374 165.204 423.031 163.184 421.742 162.599C420.453 162.015 418.704 163.085 417.839 164.993Z" fill="#F7F7F9"/>
</g>
<g id="Group_2">
<path id="Shape_2" d="M488.741 88.4354L391.297 66.4084C378.417 63.4976 365.719 71.1181 362.936 83.4311L318.473 280.095C315.69 292.408 323.874 304.749 336.753 307.66L434.197 329.687C447.077 332.598 459.775 324.977 462.558 312.664L507.025 116.001C509.805 103.685 501.622 91.3462 488.741 88.4354ZM456.632 295.298C454.823 302.523 447.503 306.916 440.275 305.116L341.831 282.863C334.531 281.38 329.812 274.265 331.288 266.964L372.415 85.0705C374.224 77.8453 381.544 73.4509 388.772 75.2517L487.218 97.5042C494.518 98.9869 499.237 106.103 497.761 113.403L456.632 295.298Z" fill="#FF8B85"/>
<path id="Path_3" d="M408.155 310.305C407.198 314.538 398.313 316.134 388.308 313.874C378.302 311.614 370.97 306.348 371.927 302.116C372.884 297.883 381.77 296.285 391.774 298.547C401.778 300.808 409.118 306.073 408.155 310.305Z" fill="#D56661"/>
<path id="Path_4" d="M405.763 309.277C404.863 313.252 397.285 314.927 388.831 313.012C380.377 311.097 374.256 306.33 375.154 302.353C376.052 298.376 383.632 296.703 392.086 298.617C400.539 300.531 406.661 305.301 405.763 309.277Z" fill="#FF8B85"/>
</g>
</g>
<path id="Path_5" d="M425.774 191.764C425.774 191.764 457.796 183.988 464.935 182.679C472.074 181.371 496.847 172.437 497.798 172.059C498.749 171.681 502.279 158.94 503.675 159.829C505.072 160.719 501.531 166.253 503.282 166.97C505.032 167.687 519.95 161.007 520.052 162.216C520.246 164.476 511.078 166.65 511.369 167.688C511.659 168.727 520.729 164.542 521.84 166.095C522.951 167.648 512.883 169.263 512.701 170.139C512.518 171.016 522.369 169.877 521.833 171.744C521.545 172.759 513.047 172.547 513.406 173.727C513.766 174.907 520.233 176.068 519.785 177.204C519.337 178.34 514.497 175.509 511.155 176.358C507.812 177.207 504.96 176.112 500.037 179.001C495.114 181.891 478.964 194.076 467.48 196.593C455.996 199.11 430.632 204.741 430.632 204.741L425.774 191.764Z" fill="white"/>
<path id="Path_6" d="M418.016 186.836C419.099 186.319 422.426 186.234 426.382 186.261C427.836 186.271 429.886 186.283 431.442 186.238C437.226 186.073 442.721 186.345 442.721 186.345C442.721 186.345 445.631 200.398 443.21 203.987C443.21 203.987 420.581 207.218 421.125 208.791L418.016 186.836Z" fill="#04BCC8"/>
<path id="Path_7" d="M339.545 186.915L341.495 184.45C342.192 183.387 343.284 182.645 344.53 182.388C346.353 182.204 346.297 179.918 344.366 180.244C343.296 180.413 342.244 180.676 341.22 181.03C342.568 180.37 343.872 179.627 345.126 178.803C345.508 177.366 343.389 176.809 340.552 178.914C337.716 181.019 339.545 186.915 339.545 186.915Z" fill="white"/>
</g>
<path id="Path_8" d="M346.618 177.988C346.618 177.988 351.167 174.333 351.89 175.889C352.613 177.445 352.298 180.807 351.62 180.569C350.941 180.33 351.032 177.935 349.076 178.557C348.532 178.734 345.819 179.589 346.618 177.988Z" fill="#F7F7F9"/>
</g>
<g id="scale_1">
<path id="Vector_16" d="M239.27 184.602L214.628 169.629C213.426 168.899 212.564 167.722 212.231 166.357C211.898 164.991 212.121 163.549 212.852 162.348L227.826 137.709C228.556 136.508 229.733 135.646 231.098 135.313C232.464 134.979 233.906 135.202 235.107 135.932L259.749 150.906C262.251 152.426 263.047 155.686 261.527 158.187L246.548 182.826C245.028 185.325 241.77 186.12 239.27 184.602Z" fill="#FF8B85"/>
<g id="Group_3">
<path id="Vector_17" d="M252.251 164.457C252.674 163.842 252.833 163.084 252.695 162.351C252.557 161.618 252.133 160.97 251.516 160.551C245.612 155.329 238.851 151.167 231.529 148.249C230.873 147.886 230.098 147.803 229.38 148.019C228.663 148.236 228.063 148.733 227.717 149.398C224.303 159.49 225.48 155.701 224.004 161.566C223.684 162.936 224.418 164.333 225.728 164.845C227.111 165.403 228.691 164.805 229.358 163.471L230.401 161.25C230.629 160.827 231.02 160.514 231.483 160.384C231.946 160.254 232.442 160.318 232.857 160.561C235.367 161.84 237.781 163.302 240.078 164.934C240.484 165.187 240.771 165.594 240.871 166.061C240.972 166.529 240.878 167.018 240.611 167.415L239.135 169.346C238.267 170.546 238.486 172.215 239.634 173.151C240.698 174.057 242.259 174.066 243.334 173.172C244.416 172.221 250.369 166.415 252.251 164.457Z" fill="white"/>
<g id="Group_4">
<path id="Vector_18" d="M233.174 152.176C233.483 152.363 233.736 152.63 233.906 152.949L234.734 151.588L232.98 150.523L232.153 151.884C232.513 151.888 232.866 151.989 233.174 152.176Z" fill="#FF8B85"/>
<path id="Vector_19" d="M230.405 152.851C230.593 152.542 230.86 152.29 231.179 152.12L229.818 151.294L228.752 153.046L230.114 153.872C230.118 153.512 230.218 153.159 230.405 152.851Z" fill="#FF8B85"/>
<path id="Vector_20" d="M231.081 155.618C230.772 155.431 230.52 155.165 230.349 154.847L229.522 156.207L231.275 157.272L232.103 155.911C231.742 155.907 231.389 155.806 231.081 155.618Z" fill="#FF8B85"/>
<path id="Vector_21" d="M234.143 153.921C234.135 154.656 233.727 155.328 233.078 155.674L234.439 156.502L235.504 154.749L234.143 153.921Z" fill="#FF8B85"/>
</g>
<path id="Vector_22" d="M233.177 154.536C232.919 154.962 232.43 155.19 231.938 155.114C231.446 155.039 231.049 154.674 230.931 154.191C230.813 153.707 230.997 153.2 231.399 152.906C231.801 152.612 232.34 152.589 232.765 152.848C233.345 153.201 233.529 153.956 233.177 154.536Z" fill="#FF8B85"/>
<path id="Vector_23" d="M248.725 164.171C248.173 165.08 247.127 165.567 246.076 165.404C245.025 165.241 244.175 164.462 243.923 163.429C243.671 162.395 244.067 161.312 244.925 160.684C245.783 160.056 246.936 160.007 247.844 160.559C249.085 161.314 249.479 162.93 248.725 164.171Z" fill="#FF8B85"/>
</g>
</g>
<path id="puls" d="M262.484 70.5075C263.273 67.1642 265.559 64.3715 268.682 62.9387C273.411 60.7447 278.512 63.1987 280.654 67.8236C283.134 73.1698 281.626 81.5562 272.64 92.4051C258.558 92.2615 251.175 87.9929 248.695 82.6467C246.553 78.0275 247.977 72.5506 252.701 70.3566C255.811 68.8964 259.421 68.952 262.484 70.5075Z" fill="#FF8B85"/>
<g id="scale_2">
<path id="Vector_24" d="M91.5871 47.584L60.2788 62.5004C56.5857 64.2599 52.1654 62.6929 50.4055 59.0005L42.005 41.3729C40.2453 37.6804 41.8125 33.2606 45.5054 31.5009L76.8138 16.5845C80.5068 14.8251 84.9272 16.392 86.6871 20.0845L95.0875 37.7121C96.8464 41.4047 95.2794 45.8238 91.5871 47.584Z" fill="#FF8B85"/>
<path id="Vector_25" d="M47.5042 49.3814L40.7994 69.3523L55.6934 58.341L47.5042 49.3814Z" fill="#FF8B85"/>
<g id="Group_5">
<path id="Vector_26" d="M58.5559 41.6574L62.5161 39.6459C62.5161 39.6459 65.7248 33.4406 65.2334 32.0311C64.7419 30.6217 62.5506 28.2165 63.1599 27.4838C64.1263 26.236 65.9114 25.9862 67.1833 26.9206C68.5628 27.83 70.2009 32.7983 70.8174 32.8817C72.3338 32.4083 73.7984 31.7825 75.1886 31.0139C76.2891 30.4718 77.5996 30.5858 78.5899 31.3099C79.2595 31.799 79.4955 32.6898 79.156 33.4463L78.6272 34.6245L79.7768 35.215C80.6362 35.6551 80.979 36.7064 80.5441 37.5684L80.1015 38.4462L80.8502 38.7609C81.3101 38.9544 81.6659 39.3344 81.8287 39.806C81.9916 40.2775 81.9462 40.7961 81.7037 41.2321L81.2913 41.9735L81.4695 42.1014C82.2091 42.6314 82.4211 43.6385 81.9581 44.4217L81.527 45.1401L70.9769 50.4978C69.9881 50.9984 68.9075 51.2917 67.8012 51.3598L63.7778 52.6299C63.3456 52.7662 62.8787 52.5658 62.6799 52.1587L58.1305 42.8571C57.9254 42.4079 58.1136 41.8771 58.5559 41.6574Z" fill="white"/>
</g>
</g>
<g id="Path_9">
<path id="Vector_27" d="M317.581 90.6235C341.246 85.2501 363.107 92.6767 366.409 107.212C368.06 114.479 364.758 122.155 358.086 128.672L372.559 147.924L348.562 135.856C342.636 139.283 336.22 141.782 329.537 143.265C305.871 148.638 284.011 141.212 280.709 126.676C277.407 112.14 293.919 95.997 317.581 90.6235Z" fill="#04BCC8"/>
<g id="Group_6">
<path id="Vector_28" d="M340.376 115.86C340.032 124.308 332.905 130.878 324.456 130.536C316.007 130.194 309.435 123.069 309.776 114.621C310.117 106.173 317.242 99.6012 325.691 99.9409C329.75 100.104 333.578 101.873 336.332 104.858C339.086 107.844 340.541 111.802 340.376 115.86Z" fill="white"/>
<path id="Vector_29" d="M316.798 117.334C316.592 120.309 318.019 123.16 320.524 124.778C323.029 126.397 326.216 126.526 328.843 125.115C331.471 123.705 333.124 120.978 333.159 117.997L316.798 117.334Z" fill="#FF8B85"/>
</g>
</g>
<path id="Path_10" d="M19.8803 158.325L12.0718 159.882L13.0418 167.239L5.41732 169.106L5.47623 176.25L0 178.585L1.18261 181.356L8.51108 178.234L8.45504 171.464L16.3856 169.514L15.4314 162.28L22.507 160.87L19.8803 158.325Z" fill="white"/>
<path id="Path_11" d="M540 218.827L537.822 211.17L530.566 212.726L528.088 205.278L520.97 205.91L518.203 200.64L515.534 202.041L519.235 209.09L525.978 208.491L528.565 216.239L535.699 214.709L537.674 221.649L540 218.827Z" fill="white"/>
<path id="Path_12" d="M21.1721 76.6468L16.808 77.9858L13.8767 71.2015L7.25374 72.3724L4.23613 67.6541L1.84792 69.1843L5.8915 75.4945L12.1681 74.3853L15.2173 81.4427L21.7842 79.4312L21.1721 76.6468Z" fill="#FF8B85"/>
<g id="tanslate_2">
<path id="Path_13" d="M78.0625 260.902C77.1948 261.367 76.3624 261.896 75.5723 262.483C75.5909 262.443 75.6111 262.402 75.6312 262.361C76.0393 261.93 77.4417 260.434 77.4532 260.425C79.2954 259.02 78.3283 257.516 76.6054 258.448C75.6477 258.954 74.7364 259.543 73.8824 260.208C74.9888 259.192 75.9862 258.063 76.8583 256.839C76.8152 255.354 74.5693 255.513 72.5662 258.42C70.8116 260.967 73.3996 265.421 74.1468 266.475C74.614 267.411 75.3435 268.19 76.2462 268.717L76.7031 265.81C77.0191 264.578 77.8129 263.523 78.9089 262.878C80.5772 262.115 79.7854 259.97 78.0625 260.902Z" fill="white"/>
<g id="Group 4">
<g id="Group 3">
<g id="Path_14">
<path id="Vector_30" d="M112.64 156.529C112.802 162.493 114.341 175.292 127.872 177.407C136.268 178.72 147.02 171.178 146.329 165.642C145.638 160.107 144.099 145.996 135.332 142.766C128.001 140.067 112.276 143.223 112.64 156.529Z" fill="#3A3B61"/>
<path id="Vector_31" d="M225.495 349.297C227.408 357.327 228.912 368.913 229.473 369.556C229.742 369.866 230.298 371.89 230.568 372.219C239.303 375.396 246.978 372.117 253.06 368.511C248.293 367.665 241.871 366.787 240.974 366.155C237.656 363.813 238.45 355.473 237.852 347.989C235.491 348.411 229.757 346.92 225.495 349.297Z" fill="white"/>
<path id="Vector_32" d="M229.29 369.106C229.346 372.278 231.388 379.048 232.021 379.04C232.774 379.031 259.024 376.757 261.498 372.729C262.986 370.309 258.943 369.678 253.062 368.517C246.976 372.123 230.02 371.092 229.29 369.106Z" fill="#3A3B61"/>
<path id="Vector_33" d="M100.837 367.217C96.7088 370.474 92.3703 373.456 87.8496 376.142C87.4789 376.317 85.3795 376.311 84.9901 376.484C79.59 384.047 80.6921 392.32 82.5372 399.146C84.6294 394.778 87.0938 388.677 88.045 388.134C93.4449 385.027 99.0639 382.318 104.857 380.027C101.522 376.419 101.986 371.959 100.837 367.217Z" fill="white"/>
<path id="Vector_34" d="M114.666 199.426L95.9109 233.551C95.9109 233.551 83.3663 249.335 76.9086 257.437C78.2996 259.713 79.6389 262.045 80.8459 264.441C87.272 258.981 100.942 247.385 105.823 240.977C113.034 231.512 126.084 209.04 126.084 209.04L114.666 199.426Z" fill="white"/>
<path id="Vector_35" d="M164.543 258.82L144.476 288.418C144.476 288.418 143.326 286.435 150.511 289.063C157.696 291.691 204.042 300.346 206.783 303.617C208.725 305.933 223.099 351.389 225.868 357.224C230.035 358.914 236.099 357.039 240.381 356.422C240.652 334.525 229.056 294.662 225.964 289.989C219.048 279.543 186.121 268.259 171.299 261.928C168.895 260.902 167.03 259.98 165.873 259.422C165.021 259.01 164.543 258.82 164.543 258.82Z" fill="#009AA3"/>
<path id="Vector_36" d="M87.5263 376.219C84.4541 375.423 78.1947 375.446 78.0323 376.057C77.8398 376.785 73.003 402.682 76.2146 406.143C78.1487 408.225 79.84 404.499 82.5372 399.146C80.6907 392.32 85.4168 376.39 87.5263 376.219Z" fill="#3A3B61"/>
<path id="Vector_37" d="M159.283 279.646C159.457 277.424 164.211 264.448 165.893 259.397C165.947 259.237 164.702 256.316 163.359 252.114L161.435 252.423L132.904 253.716C132.904 253.716 121.408 273.119 122.752 282.034C124.62 294.479 142.613 338.716 139.877 340.798C134.939 344.559 110.743 358.577 98.3106 366.912C99.1053 371.727 101.328 378.443 104.382 382.285C114.499 378.768 158.222 361.145 162.722 347.625C166.692 335.693 158.989 283.432 159.283 279.646Z" fill="#02AFBA"/>
<path id="Vector_38" d="M158.825 170.599C158.825 170.599 150.966 182.942 146.334 183.386L162.715 198.546C162.715 198.546 173.877 181.812 175.043 178.941C175.048 178.942 164.888 169.894 158.825 170.599Z" fill="#FFA09B"/>
<path id="Vector_39" d="M164.561 245.184C164.23 249.968 164.69 254.774 165.922 259.408C159.334 260.823 135.976 263.8 130.263 256.846C130.059 256.598 138.351 241.972 137.209 236C135.525 227.192 128.209 212.255 127.603 211.455C126.586 210.111 122.844 217.058 122.844 217.058C118.462 217.081 108.427 206.897 108.427 206.897C108.427 206.897 118.806 188.819 121.663 187.119C124.519 185.419 148.115 182.852 148.133 182.85C149.869 182.725 154.613 186.842 155.917 188.142C170.832 203.03 166.815 224.351 164.561 245.184Z" fill="#FF8B85"/>
<path id="Vector_40" d="M134.832 175.274C134.832 175.274 137.404 183.771 137.419 187.225C137.433 190.679 138.815 195.38 146.059 194.669C153.303 193.958 147.361 186.668 146.332 183.388C145.334 178.885 144.579 174.332 144.07 169.749L134.832 175.274Z" fill="white"/>
<path id="Vector_41" d="M144.76 174.94C144.355 172.114 144.073 169.75 144.073 169.75L134.832 175.276C134.832 175.276 135.358 177.013 135.936 179.236C139.489 179.811 143.021 178.091 144.76 174.94Z" fill="#B0B1C6"/>
<path id="Vector_42" d="M127.295 149.625C124.837 151.533 123.139 154.254 122.507 157.301C121.532 162.313 124.511 174.685 135.268 176.632C146.025 178.579 149.524 168.18 146.569 160.637C143.615 153.094 137.92 143.742 127.295 149.625Z" fill="white"/>
<path id="Vector_43" d="M147.565 157.492C147.577 159.598 146.589 161.312 145.362 161.318C144.135 161.324 143.131 159.621 143.121 157.515C143.111 155.408 144.095 153.694 145.323 153.689C146.552 153.683 147.554 155.385 147.565 157.492Z" fill="white"/>
<path id="Vector_44" d="M127.183 167.986C128.599 169.683 128.817 171.833 127.669 172.789C126.521 173.744 124.446 173.145 123.031 171.45C121.615 169.754 121.398 167.604 122.545 166.647C123.692 165.69 125.769 166.295 127.183 167.986Z" fill="white"/>
<path id="Vector_45" d="M116.273 144.904C116.695 139.127 120.783 117.637 107.636 115.594C94.4898 113.551 91.6863 127.916 84.3923 108.587C77.6386 90.681 57.5687 97.6134 56.7295 111.212C54.7788 111.043 52.8162 111.351 51.0119 112.112C44.4751 115.084 41.5814 122.789 44.5456 129.328C45.0011 130.409 44.7424 131.483 45.4077 132.374C43.8659 138.297 44.9292 145.068 49.5031 151.944C61.9931 170.729 74.5204 150.956 82.9654 152.009C91.4104 153.062 85.9068 159.664 93.2224 164.816C100.538 169.968 106.427 168.619 118.336 154.564L121.276 150.684C119.804 150.698 118.401 150.064 117.437 148.951C116.474 147.838 116.048 146.359 116.273 144.904Z" fill="#3A3B61"/>
</g>
<g id="Group_7">
<path id="Shape_3" d="M215.369 257.774C213.941 253.617 155.803 84.2817 153.264 76.8867C149.28 65.5159 136.896 59.4581 125.472 63.2921L38.7561 92.1709C33.2791 93.9567 28.7459 97.8618 26.1693 103.014C23.5928 108.165 23.1877 114.135 25.0447 119.587L87.1498 300.475C91.134 311.846 103.518 317.904 114.942 314.07L201.658 285.191C207.135 283.405 211.668 279.5 214.245 274.348C216.821 269.196 217.226 263.227 215.369 257.774ZM194.306 262.345L106.701 291.511C100.112 293.723 92.9676 290.229 90.6703 283.669L33.2296 116.37C32.1582 113.226 32.3911 109.784 33.8761 106.812C35.3612 103.841 37.9747 101.588 41.1328 100.557L128.738 71.3911C135.327 69.1797 142.47 72.6742 144.767 79.2329L202.21 246.538C203.279 249.681 203.045 253.122 201.56 256.092C200.075 259.062 197.463 261.314 194.306 262.345Z" fill="#04BCC8"/>
<path id="Path_15" d="M171.841 281.958C173.177 285.85 167.044 291.41 158.141 294.374C149.238 297.338 140.938 296.586 139.604 292.693C138.271 288.801 144.402 283.241 153.304 280.277C162.206 277.313 170.51 278.064 171.841 281.958Z" fill="#088C95"/>
<path id="Path_16" d="M169.476 282.271C170.732 285.928 165.652 290.923 158.124 293.428C150.596 295.932 143.487 294.998 142.231 291.34C140.975 287.682 146.055 282.688 153.583 280.184C161.111 277.679 168.22 278.615 169.476 282.271Z" fill="#04BCC8"/>
</g>
</g>
<g id="Group_8">
<path id="Path_17" d="M182.966 104.08C180.9 102.751 178.555 101.916 176.114 101.638C174.344 101.478 166.612 101.484 165.61 103.342C164.609 105.199 172.726 110.467 173.159 112.656C173.591 114.846 168.458 148.828 166.98 155.577C166.248 158.904 163.443 165.174 160.786 170.674C164.607 171.285 169.276 174.41 172.209 176.639C175.968 168.418 179.813 159.177 180.292 154.834C181.253 146.061 184.489 105.336 182.966 104.08Z" fill="white"/>
<g id="Group_9">
<g id="Shape_4">
<path id="Vector_46" d="M205.387 45.4533C202.751 45.2321 188.971 55.7391 188.971 55.7391L188.356 56.5623C188.356 56.5623 206.96 59.706 207.832 59.1212C210.19 57.5451 207.551 45.6358 205.387 45.4533ZM189.017 56.0595C193.507 52.7937 202.758 48.7938 204.752 47.9533C205.949 50.769 206.524 53.8099 206.439 56.8684C204.243 56.7031 194.459 56.9258 189.015 56.0595H189.017Z" fill="white"/>
</g>
<g id="Shape_5">
<path id="Vector_47" d="M185.261 36.7437C182.877 30.3645 180.547 30.6633 178.896 30.8774C177.245 31.0915 169.823 36.3472 170.516 40.3888C171.209 44.4304 186.061 56.229 186.061 56.229L187.044 55.0911C187.044 55.0911 187.645 43.1215 185.261 36.7437ZM172.776 39.9937C172.432 37.9822 177.579 33.6834 179.273 33.1432C179.6 33.0767 179.937 33.0723 180.266 33.1303C180.581 33.2193 181.713 33.8027 183.111 37.5469C184.868 43.1752 185.913 49.0017 186.219 54.89C180.297 49.9403 173.163 41.7293 172.776 39.9937Z" fill="white"/>
</g>
<path id="Path_18" d="M185.263 56.4541L185.712 54.8833C186.005 53.8586 187.073 53.2651 188.098 53.5578C189.122 53.8504 189.716 54.9183 189.423 55.943L188.975 57.5138C188.682 58.5385 187.614 59.132 186.589 58.8393C185.564 58.5466 184.971 57.4788 185.263 56.4541Z" fill="white"/>
<path id="Path_19" d="M201.281 110.783L150.038 96.1522C147.267 95.3634 145.586 92.5579 146.197 89.7428L155.264 47.8211L221.996 66.8739L206.956 108.938C206.326 110.698 203.828 111.51 201.281 110.783Z" fill="#FF8B85"/>
<path id="Path_20" d="M222.188 76.641L149.705 56.0954L150.264 51.219C150.424 49.8277 151.188 48.5774 152.354 47.8007C153.519 47.024 154.967 46.7997 156.313 47.1875L221.817 66.0852C224.145 66.7576 225.553 68.713 224.876 70.3179L222.188 76.641Z" fill="#04BCC8"/>
<path id="Rectangle" d="M184.547 65.9936L187.367 56.1212L188.592 56.4711L185.772 66.3435L184.547 65.9936Z" fill="white"/>
<path id="Rectangle_2" d="M175.284 103.434L185.898 66.3075L187.622 66.8002L177.008 103.926L175.284 103.434Z" fill="white"/>
</g>
<path id="Path_21" d="M169.759 104.023L169.944 101.843C168.305 101.372 166.693 100.814 165.113 100.172L164.826 98.5085C163.906 96.2269 162.883 97.8548 162.584 98.3749C162.517 99.4709 162.603 100.571 162.838 101.643C162.838 101.643 166.287 105.291 167.767 106.672C168.497 107.356 170.828 109.247 170.828 109.247L172.682 106.678L169.759 104.023Z" fill="white"/>
</g>
</g>
</g>
</g>
</g>
</g>
</g>
</g>
</svg>
