<?xml version="1.0" encoding="UTF-8"?>
<svg width="175px" height="52px" viewBox="0 0 175 52" version="1.1" xmlns="http://www.w3.org/2000/svg" xmlns:xlink="http://www.w3.org/1999/xlink">
    <title>google-play</title>
    <defs>
        <polygon id="path-1" points="0 0 174.999611 0 174.999611 51.99987 0 51.99987"></polygon>
        <polygon id="path-3" points="0 0 174.999611 0 174.999611 51.99987 0 51.99987"></polygon>
        <polygon id="path-5" points="0 52 175 52 175 0 0 0"></polygon>
        <path d="M0,5.3651 L0,5.5549 L0,5.7447 L5.34851852,11.1111 L5.47166667,11.0409 L11.8092593,7.4308 C13.6188889,6.3986 13.6188889,4.7099 11.8092593,3.679 L11.8092593,3.679 L5.47166667,0.0676 L5.35111111,0 L0,5.3651 Z" id="path-7"></path>
        <linearGradient x1="80.7496997%" y1="49.9966713%" x2="-157.282076%" y2="49.9966713%" id="linearGradient-9">
            <stop stop-color="#FEFEFE" offset="0%"></stop>
            <stop stop-color="#F8F8F8" offset="100%"></stop>
        </linearGradient>
        <path d="M-2.30268479e-15,16.1889 C0.596296296,16.8207 1.58277778,16.9 2.69111111,16.2682 L2.69111111,16.2682 L21.6131481,5.486 L16.1414815,0 L-2.30268479e-15,16.1889 Z" id="path-10"></path>
        <linearGradient x1="86.2443352%" y1="30.793206%" x2="-50.1405068%" y2="136.502805%" id="linearGradient-12">
            <stop stop-color="#EE4547" offset="0%"></stop>
            <stop stop-color="#C7186D" offset="100%"></stop>
        </linearGradient>
        <path d="M-2.30268479e-15,0.5161 L16.1414815,16.705 L21.6131481,11.2177 L2.69111111,0.4368 C2.1712963,0.1404 1.6787037,0 1.24055556,0 L1.24055556,0 C0.744074074,0 0.316296296,0.1794 -2.30268479e-15,0.5161" id="path-13"></path>
        <linearGradient x1="-50.749008%" y1="-36.9780965%" x2="60.6063708%" y2="49.3354022%" id="linearGradient-15">
            <stop stop-color="#73C169" offset="0%"></stop>
            <stop stop-color="#289E6F" offset="100%"></stop>
        </linearGradient>
    </defs>
    <g id="Page-1" stroke="none" stroke-width="1" fill="none" fill-rule="evenodd">
        <g id="Landing-Page" transform="translate(-435.000000, -2852.000000)">
            <g id="Group-9" transform="translate(0.000000, 2484.000000)">
                <g id="Group-8" transform="translate(165.000000, 158.000000)">
                    <g id="Group-2" transform="translate(58.000000, 163.000000)">
                        <g id="icons" transform="translate(36.000000, 47.000000)">
                            <g id="google-play" transform="translate(176.000000, 0.000000)">
                                <g id="Group-10">
                                    <g id="Group-3" transform="translate(0.000389, 0.000130)">
                                        <mask id="mask-2" fill="white">
                                            <use xlink:href="#path-1"></use>
                                        </mask>
                                        <g id="Clip-2"></g>
                                        <path d="M168.518519,52 L6.48148148,52 C2.91666667,52 0,49.075 0,45.5 L0,6.5 C0,2.925 2.91666667,0 6.48148148,0 L168.518519,0 C172.083333,0 175,2.925 175,6.5 L175,45.5 C175,49.075 172.083333,52 168.518519,52" id="Fill-1" fill="#010202" mask="url(#mask-2)"></path>
                                    </g>
                                    <g id="Group-6" transform="translate(0.000389, 0.000130)">
                                        <mask id="mask-4" fill="white">
                                            <use xlink:href="#path-3"></use>
                                        </mask>
                                        <g id="Clip-5"></g>
                                        <path d="M168.518519,0 L6.48148148,0 C2.91666667,0 0,2.925 0,6.5 L0,45.5 C0,49.075 2.91666667,52 6.48148148,52 L168.518519,52 C172.083333,52 175,49.075 175,45.5 L175,6.5 C175,2.925 172.083333,0 168.518519,0 M168.518519,1.04 C171.519444,1.04 173.961667,3.4892 173.961667,6.5 L173.961667,45.5 C173.961667,48.5095 171.519444,50.96 168.518519,50.96 L6.48148148,50.96 C3.47925926,50.96 1.03703704,48.5095 1.03703704,45.5 L1.03703704,6.5 C1.03703704,3.4892 3.47925926,1.04 6.48148148,1.04 L168.518519,1.04" id="Fill-4" fill="#A6A6A5" mask="url(#mask-4)"></path>
                                    </g>
                                    <mask id="mask-6" fill="white">
                                        <use xlink:href="#path-5"></use>
                                    </mask>
                                    <g id="Clip-8"></g>
                                    <path d="M138.622037,39 L141.03963,39 L141.03963,22.7487 L138.622037,22.7487 L138.622037,39 Z M160.407593,28.6026 L157.634815,35.6486 L157.551852,35.6486 L154.67537,28.6026 L152.068519,28.6026 L156.383889,38.4501 L153.924815,43.9283 L156.447407,43.9283 L163.097407,28.6026 L160.407593,28.6026 Z M146.688889,37.154 C145.896852,37.154 144.792407,36.7575 144.792407,35.7747 C144.792407,34.5189 146.167778,34.0392 147.356481,34.0392 C148.419444,34.0392 148.919815,34.268 149.566667,34.5826 C149.38,36.088 148.087593,37.154 146.688889,37.154 L146.688889,37.154 Z M146.981852,28.2477 C145.229259,28.2477 143.415741,29.0212 142.666481,30.7359 L144.813148,31.6342 C145.272037,30.7359 146.126296,30.4421 147.023333,30.4421 C148.274259,30.4421 149.545926,31.1948 149.566667,32.5325 L149.566667,32.7002 C149.128519,32.4493 148.191296,32.0736 147.044074,32.0736 C144.730185,32.0736 142.373519,33.3489 142.373519,35.7318 C142.373519,37.9067 144.271296,39.3068 146.398519,39.3068 C148.024074,39.3068 148.919815,38.5749 149.483704,37.7182 L149.566667,37.7182 L149.566667,38.9727 L151.901296,38.9727 L151.901296,32.7431 C151.901296,29.8571 149.75463,28.2477 146.981852,28.2477 L146.981852,28.2477 Z M132.032963,30.5812 L128.592593,30.5812 L128.592593,25.0094 L132.032963,25.0094 C133.841296,25.0094 134.867963,26.5122 134.867963,27.7953 C134.867963,29.055 133.841296,30.5812 132.032963,30.5812 L132.032963,30.5812 Z M131.970741,22.7487 L126.173704,22.7487 L126.173704,39 L128.592593,39 L128.592593,32.8432 L131.970741,32.8432 C134.651481,32.8432 137.286852,30.8958 137.286852,27.7953 C137.286852,24.6948 134.651481,22.7487 131.970741,22.7487 L131.970741,22.7487 Z M100.365741,37.1566 C98.6948148,37.1566 97.2961111,35.7539 97.2961111,33.8273 C97.2961111,31.8799 98.6948148,30.4551 100.365741,30.4551 C102.015926,30.4551 103.310926,31.8799 103.310926,33.8273 C103.310926,35.7539 102.015926,37.1566 100.365741,37.1566 L100.365741,37.1566 Z M103.143704,29.5126 L103.059444,29.5126 C102.516296,28.8639 101.472778,28.2776 100.157037,28.2776 C97.3998148,28.2776 94.8733333,30.706 94.8733333,33.8273 C94.8733333,36.9265 97.3998148,39.3354 100.157037,39.3354 C101.472778,39.3354 102.516296,38.7491 103.059444,38.0783 L103.143704,38.0783 L103.143704,38.8739 C103.143704,40.989 102.015926,42.12 100.198519,42.12 C98.7155556,42.12 97.7977778,41.0527 97.4218519,40.1518 L95.3114815,41.0319 C95.9168519,42.4983 97.5255556,44.2988 100.198519,44.2988 C103.038704,44.2988 105.439444,42.6231 105.439444,38.5398 L105.439444,28.6117 L103.143704,28.6117 L103.143704,29.5126 Z M107.11037,39 L109.533148,39 L109.533148,22.7487 L107.11037,22.7487 L107.11037,39 Z M113.104444,33.6388 C113.040926,31.5029 114.75463,30.4135 115.986111,30.4135 C116.946667,30.4135 117.762037,30.8945 118.032963,31.5861 L113.104444,33.6388 Z M120.622963,31.7954 C120.164074,30.5591 118.764074,28.2776 115.903148,28.2776 C113.062963,28.2776 110.703704,30.5175 110.703704,33.8052 C110.703704,36.9057 113.040926,39.3354 116.174074,39.3354 C118.701852,39.3354 120.164074,37.7858 120.768148,36.8849 L118.889815,35.6278 C118.263704,36.5495 117.406852,37.1566 116.174074,37.1566 C114.942593,37.1566 114.065,36.5924 113.501111,35.4822 L120.873148,32.4233 L120.622963,31.7954 Z M61.8890741,29.9741 L61.8890741,32.3193 L67.4864815,32.3193 C67.3192593,33.6388 66.8811111,34.6021 66.2122222,35.2716 C65.3981481,36.0893 64.1238889,36.9902 61.8890741,36.9902 C58.4435185,36.9902 55.7498148,34.2043 55.7498148,30.7476 C55.7498148,27.2922 58.4435185,24.5076 61.8890741,24.5076 C63.747963,24.5076 65.1064815,25.2408 66.1085185,26.182 L67.7587037,24.5284 C66.36,23.1881 64.4998148,22.1611 61.8890741,22.1611 C57.1705556,22.1611 53.2012963,26.0156 53.2012963,30.7476 C53.2012963,35.4822 57.1705556,39.3354 61.8890741,39.3354 C64.4375926,39.3354 66.36,38.4969 67.8624074,36.9265 C69.4075926,35.3769 69.8885185,33.1994 69.8885185,31.4392 C69.8885185,30.8945 69.847037,30.3927 69.7640741,29.9741 L61.8890741,29.9741 Z M76.252037,37.1566 C74.5798148,37.1566 73.1396296,35.7747 73.1396296,33.8052 C73.1396296,31.8162 74.5798148,30.4551 76.252037,30.4551 C77.922963,30.4551 79.3631481,31.8162 79.3631481,33.8052 C79.3631481,35.7747 77.922963,37.1566 76.252037,37.1566 L76.252037,37.1566 Z M76.252037,28.2776 C73.2018519,28.2776 70.7168519,30.602 70.7168519,33.8052 C70.7168519,36.9902 73.2018519,39.3354 76.252037,39.3354 C79.2996296,39.3354 81.7859259,36.9902 81.7859259,33.8052 C81.7859259,30.602 79.2996296,28.2776 76.252037,28.2776 L76.252037,28.2776 Z M88.3244444,37.1566 C86.6535185,37.1566 85.2133333,35.7747 85.2133333,33.8052 C85.2133333,31.8162 86.6535185,30.4551 88.3244444,30.4551 C89.9953704,30.4551 91.4355556,31.8162 91.4355556,33.8052 C91.4355556,35.7747 89.9953704,37.1566 88.3244444,37.1566 L88.3244444,37.1566 Z M88.3244444,28.2776 C85.2742593,28.2776 82.7905556,30.602 82.7905556,33.8052 C82.7905556,36.9902 85.2742593,39.3354 88.3244444,39.3354 C91.3733333,39.3354 93.8596296,36.9902 93.8596296,33.8052 C93.8596296,30.602 91.3733333,28.2776 88.3244444,28.2776 L88.3244444,28.2776 Z" id="Fill-7" fill="#FEFEFE" mask="url(#mask-6)"></path>
                                    <path d="M13.5267222,9.8111 C13.1495,10.2115 12.9278333,10.8316 12.9278333,11.6363 L12.9278333,40.3637 C12.9278333,41.1684 13.1495,41.7885 13.5267222,42.1876 L13.6226481,42.2825 L29.6682037,26.1898 L29.6682037,26 L29.6682037,25.8102 L13.6226481,9.7175 L13.5267222,9.8111 Z" id="Fill-9" fill="#5AC8F2" mask="url(#mask-6)"></path>
                                </g>
                                <g id="Group-13" transform="translate(29.668333, 20.445100)">
                                    <mask id="mask-8" fill="white">
                                        <use xlink:href="#path-7"></use>
                                    </mask>
                                    <g id="Clip-12"></g>
                                    <path d="M0,5.3651 L0,5.5549 L0,5.7447 L5.34851852,11.1111 L5.47166667,11.0409 L11.8092593,7.4308 C13.6188889,6.3986 13.6188889,4.7099 11.8092593,3.679 L11.8092593,3.679 L5.47166667,0.0676 L5.35111111,0 L0,5.3651 Z" id="Fill-11" fill="url(#linearGradient-9)" mask="url(#mask-8)"></path>
                                </g>
                                <g id="Group-16" transform="translate(13.526852, 26.000000)">
                                    <mask id="mask-11" fill="white">
                                        <use xlink:href="#path-10"></use>
                                    </mask>
                                    <g id="Clip-15"></g>
                                    <path d="M-2.30268479e-15,16.1889 C0.596296296,16.8207 1.58277778,16.9 2.69111111,16.2682 L2.69111111,16.2682 L21.6131481,5.486 L16.1414815,0 L-2.30268479e-15,16.1889 Z" id="Fill-14" fill="url(#linearGradient-12)" mask="url(#mask-11)"></path>
                                </g>
                                <g id="Group-19" transform="translate(13.526852, 9.295000)">
                                    <mask id="mask-14" fill="white">
                                        <use xlink:href="#path-13"></use>
                                    </mask>
                                    <g id="Clip-18"></g>
                                    <path d="M-2.30268479e-15,0.5161 L16.1414815,16.705 L21.6131481,11.2177 L2.69111111,0.4368 C2.1712963,0.1404 1.6787037,0 1.24055556,0 L1.24055556,0 C0.744074074,0 0.316296296,0.1794 -2.30268479e-15,0.5161" id="Fill-17" fill="url(#linearGradient-15)" mask="url(#mask-14)"></path>
                                </g>
                                <g id="Group-60" transform="translate(88.710741, 5.520450)">
                                    <path d="M3.71907407,5.52331 C3.49611111,5.84441 3.19018519,6.19411 2.8,6.57111 C2.37740741,6.23571 2.03518519,5.92631 1.77592593,5.64161 C2.26333333,5.15281 2.59518519,4.80441 2.77277778,4.59511 C3.07351852,4.92531 3.38851852,5.23471 3.71907407,5.52331 M2.58351852,13.33631 C1.77074074,13.33631 1.13814815,13.10361 0.681851852,12.63431 C0.228148148,12.16761 0,11.50461 0,10.64791 C0,10.37361 0.0181481481,10.11491 0.0531481481,9.86921 C0.0868518519,9.62611 0.163333333,9.26861 0.278703704,8.79801 L0.801111111,8.92411 C0.693518519,9.34271 0.64037037,9.68201 0.64037037,9.94331 C0.64037037,10.64141 0.81537037,11.18481 1.16277778,11.57351 C1.51148148,11.96221 1.9962963,12.15721 2.61722222,12.15721 C3.3237037,12.15721 4.0262963,11.98431 4.72759259,11.63981 C5.42888889,11.29531 5.89814815,10.87151 6.13407407,10.36971 C5.51314815,9.00471 5.20203704,8.09601 5.20203704,7.63841 C5.20203704,7.39141 5.27074074,7.16911 5.41074074,6.96891 C5.54944444,6.76871 5.79185185,6.56591 6.13407407,6.36181 C6.17685185,6.69591 6.28444444,7.31341 6.46074074,8.21171 L6.46851852,8.26761 C6.78351852,8.42491 7.12962963,8.50421 7.50685185,8.50421 C7.58462963,8.50421 7.62481481,8.54451 7.62481481,8.62381 L7.62481481,9.47531 C7.62481481,9.55461 7.58462963,9.59361 7.50685185,9.59361 C7.18537037,9.59361 6.89759259,9.53511 6.64351852,9.41941 L6.66296296,9.83151 C6.66296296,10.41781 6.47759259,10.97941 6.10685185,11.51371 C5.73611111,12.04931 5.22666667,12.48741 4.58240741,12.82671 C3.93685185,13.16601 3.27055556,13.33631 2.58351852,13.33631" id="Fill-20" fill="#FEFEFE"></path>
                                    <path d="M3.71907407,5.52331 C3.49611111,5.84441 3.19018519,6.19411 2.8,6.57111 C2.37740741,6.23571 2.03518519,5.92631 1.77592593,5.64161 C2.26333333,5.15281 2.59518519,4.80441 2.77277778,4.59511 C3.07351852,4.92531 3.38851852,5.23471 3.71907407,5.52331 Z M2.58351852,13.33631 C1.77074074,13.33631 1.13814815,13.10361 0.681851852,12.63431 C0.228148148,12.16761 0,11.50461 0,10.64791 C0,10.37361 0.0181481481,10.11491 0.0531481481,9.86921 C0.0868518519,9.62611 0.163333333,9.26861 0.278703704,8.79801 L0.801111111,8.92411 C0.693518519,9.34271 0.64037037,9.68201 0.64037037,9.94331 C0.64037037,10.64141 0.81537037,11.18481 1.16277778,11.57351 C1.51148148,11.96221 1.9962963,12.15721 2.61722222,12.15721 C3.3237037,12.15721 4.0262963,11.98431 4.72759259,11.63981 C5.42888889,11.29531 5.89814815,10.87151 6.13407407,10.36971 C5.51314815,9.00471 5.20203704,8.09601 5.20203704,7.63841 C5.20203704,7.39141 5.27074074,7.16911 5.41074074,6.96891 C5.54944444,6.76871 5.79185185,6.56591 6.13407407,6.36181 C6.17685185,6.69591 6.28444444,7.31341 6.46074074,8.21171 L6.46851852,8.26761 C6.78351852,8.42491 7.12962963,8.50421 7.50685185,8.50421 C7.58462963,8.50421 7.62481481,8.54451 7.62481481,8.62381 L7.62481481,9.47531 C7.62481481,9.55461 7.58462963,9.59361 7.50685185,9.59361 C7.18537037,9.59361 6.89759259,9.53511 6.64351852,9.41941 L6.66296296,9.83151 C6.66296296,10.41781 6.47759259,10.97941 6.10685185,11.51371 C5.73611111,12.04931 5.22666667,12.48741 4.58240741,12.82671 C3.93685185,13.16601 3.27055556,13.33631 2.58351852,13.33631 Z" id="Stroke-22" stroke="#FEFEFE" stroke-width="0.2"></path>
                                    <path d="M12.3640741,8.50486 C12.3446296,7.91336 12.2331481,7.34786 12.0296296,6.80836 C11.8261111,6.26756 11.6238889,5.99846 11.4242593,5.99846 C11.2427778,5.99846 11.0742593,6.05176 10.9161111,6.15836 C10.757963,6.26626 10.6011111,6.43136 10.442963,6.65496 C10.2848148,6.87856 10.0709259,7.25556 9.8012963,7.78596 C10.4701852,8.15256 11.3244444,8.39306 12.3640741,8.50486 M7.57425926,9.59426 C7.49518519,9.59426 7.455,9.55526 7.455,9.47596 L7.455,8.62316 C7.455,8.54386 7.49518519,8.50486 7.57425926,8.50486 C7.93592593,8.50486 8.24055556,8.41776 8.48944444,8.24356 C8.73703704,8.06806 8.95222222,7.80156 9.1337037,7.44406 L9.42018519,6.87076 C9.78574074,6.08946 10.1435185,5.53696 10.4948148,5.21586 C10.8448148,4.89476 11.2298148,4.73486 11.6472222,4.73486 C11.9259259,4.73486 12.2033333,4.90386 12.4794444,5.24446 C12.7555556,5.58376 12.9785185,6.02186 13.147037,6.55616 C13.3168519,7.09176 13.4024074,7.60916 13.4024074,8.10706 C13.4024074,8.39956 13.347963,8.66736 13.2416667,8.90656 C13.1353704,9.14576 12.9461111,9.37456 12.6777778,9.59426 C12.1061111,9.59426 11.4994444,9.51496 10.8564815,9.35636 C10.2135185,9.19906 9.67685185,8.99366 9.24518519,8.74276 C9.02222222,9.04566 8.77851852,9.26276 8.51277778,9.39536 C8.24962963,9.52796 7.93592593,9.59426 7.57425926,9.59426" id="Fill-24" fill="#FEFEFE"></path>
                                    <path d="M12.3640741,8.50486 C12.3446296,7.91336 12.2331481,7.34786 12.0296296,6.80836 C11.8261111,6.26756 11.6238889,5.99846 11.4242593,5.99846 C11.2427778,5.99846 11.0742593,6.05176 10.9161111,6.15836 C10.757963,6.26626 10.6011111,6.43136 10.442963,6.65496 C10.2848148,6.87856 10.0709259,7.25556 9.8012963,7.78596 C10.4701852,8.15256 11.3244444,8.39306 12.3640741,8.50486 Z M7.57425926,9.59426 C7.49518519,9.59426 7.455,9.55526 7.455,9.47596 L7.455,8.62316 C7.455,8.54386 7.49518519,8.50486 7.57425926,8.50486 C7.93592593,8.50486 8.24055556,8.41776 8.48944444,8.24356 C8.73703704,8.06806 8.95222222,7.80156 9.1337037,7.44406 L9.42018519,6.87076 C9.78574074,6.08946 10.1435185,5.53696 10.4948148,5.21586 C10.8448148,4.89476 11.2298148,4.73486 11.6472222,4.73486 C11.9259259,4.73486 12.2033333,4.90386 12.4794444,5.24446 C12.7555556,5.58376 12.9785185,6.02186 13.147037,6.55616 C13.3168519,7.09176 13.4024074,7.60916 13.4024074,8.10706 C13.4024074,8.39956 13.347963,8.66736 13.2416667,8.90656 C13.1353704,9.14576 12.9461111,9.37456 12.6777778,9.59426 C12.1061111,9.59426 11.4994444,9.51496 10.8564815,9.35636 C10.2135185,9.19906 9.67685185,8.99366 9.24518519,8.74276 C9.02222222,9.04566 8.77851852,9.26276 8.51277778,9.39536 C8.24962963,9.52796 7.93592593,9.59426 7.57425926,9.59426 Z" id="Stroke-26" stroke="#FEFEFE" stroke-width="0.2"></path>
                                    <path d="M18.8809444,7.0525 C19.2620556,7.3775 19.6846481,7.5946 20.1500185,7.7025 C20.6127963,7.8091 21.1248333,7.8663 21.6874259,7.8767 L21.3192778,5.5718 L21.3115,5.5445 C20.1746481,5.9358 19.364463,6.4376 18.8809444,7.0525 L18.8809444,7.0525 Z M21.1922407,9.035 C20.6737222,8.9895 20.3159444,8.944 20.1215,8.8998 C19.9270556,8.8556 19.7222407,8.7919 19.5109444,8.71 C19.2996481,8.6294 19.0831667,8.5254 18.8602037,8.4006 C18.638537,8.2745 18.4700185,8.1536 18.3559444,8.0366 C18.2418704,7.9209 18.1848333,7.813 18.1848333,7.7155 C18.1848333,7.5907 18.2496481,7.3736 18.3766852,7.0668 C18.5050185,6.7587 18.6100185,6.5338 18.6929815,6.3895 C18.8381667,6.1243 19.1518704,5.8175 19.6366852,5.4704 C20.1215,5.1246 20.6361296,4.8412 21.1792778,4.6228 L21.1300185,4.2315 C21.4592778,3.9338 21.8053889,3.6842 22.1670556,3.484 L22.3005741,8.1276 C22.7322407,8.3798 23.2261296,8.5046 23.7822407,8.5046 C23.8626111,8.5046 23.9015,8.5436 23.9015,8.6229 L23.9015,9.4757 C23.9015,9.555 23.8626111,9.594 23.7822407,9.594 C23.2079815,9.594 22.7413148,9.4861 22.383537,9.269 C22.0270556,9.0532 21.8209444,8.7464 21.7652037,8.3512 L21.7159444,8.0509 L21.1922407,9.035 Z" id="Fill-28" fill="#FEFEFE"></path>
                                    <path d="M18.8809444,7.0525 C19.2620556,7.3775 19.6846481,7.5946 20.1500185,7.7025 C20.6127963,7.8091 21.1248333,7.8663 21.6874259,7.8767 L21.3192778,5.5718 L21.3115,5.5445 C20.1746481,5.9358 19.364463,6.4376 18.8809444,7.0525 Z M21.1922407,9.035 C20.6737222,8.9895 20.3159444,8.944 20.1215,8.8998 C19.9270556,8.8556 19.7222407,8.7919 19.5109444,8.71 C19.2996481,8.6294 19.0831667,8.5254 18.8602037,8.4006 C18.638537,8.2745 18.4700185,8.1536 18.3559444,8.0366 C18.2418704,7.9209 18.1848333,7.813 18.1848333,7.7155 C18.1848333,7.5907 18.2496481,7.3736 18.3766852,7.0668 C18.5050185,6.7587 18.6100185,6.5338 18.6929815,6.3895 C18.8381667,6.1243 19.1518704,5.8175 19.6366852,5.4704 C20.1215,5.1246 20.6361296,4.8412 21.1792778,4.6228 L21.1300185,4.2315 C21.4592778,3.9338 21.8053889,3.6842 22.1670556,3.484 L22.3005741,8.1276 C22.7322407,8.3798 23.2261296,8.5046 23.7822407,8.5046 C23.8626111,8.5046 23.9015,8.5436 23.9015,8.6229 L23.9015,9.4757 C23.9015,9.555 23.8626111,9.594 23.7822407,9.594 C23.2079815,9.594 22.7413148,9.4861 22.383537,9.269 C22.0270556,9.0532 21.8209444,8.7464 21.7652037,8.3512 L21.7159444,8.0509 L21.1922407,9.035 Z" id="Stroke-30" stroke="#FEFEFE" stroke-width="0.2"></path>
                                    <path d="M28.5399074,11.20002 C28.3675,11.47042 28.0810185,11.79412 27.6830556,12.17112 C27.2708333,11.83962 26.9558333,11.54972 26.7419444,11.29752 C26.9558333,11.10252 27.2630556,10.78142 27.6610185,10.33422 C27.7452778,10.42782 28.0382407,10.71512 28.5399074,11.20002 M26.3880556,11.40282 C26.2156481,11.67712 25.9343519,12.00342 25.5441667,12.38042 C25.1176852,12.03592 24.8026852,11.74472 24.5978704,11.50682 C24.8480556,11.27412 25.1552778,10.95302 25.5169444,10.54352 C25.5999074,10.63192 25.8915741,10.91792 26.3880556,11.40282 M27.6610185,6.34062 C27.7919444,6.34062 27.9086111,6.37832 28.0110185,6.45242 C27.8386111,6.86712 27.6882407,7.21292 27.5573148,7.49242 C27.4276852,7.77192 27.3486111,7.92792 27.3213889,7.96042 C27.6415741,8.16582 27.9397222,8.30622 28.2158333,8.38552 C28.4919444,8.46482 28.7913889,8.50512 29.1167593,8.50512 C29.1958333,8.50512 29.2360185,8.54412 29.2360185,8.62342 L29.2360185,9.47492 C29.2360185,9.55422 29.1958333,9.59452 29.1167593,9.59452 C28.240463,9.59452 27.4873148,9.31762 26.8612037,8.76252 L26.630463,9.07062 C26.534537,9.17722 26.1897222,9.29162 25.5973148,9.41252 C25.0049074,9.53342 24.4241667,9.59452 23.8537963,9.59452 C23.7747222,9.59452 23.734537,9.55422 23.734537,9.47492 L23.734537,8.62342 C23.734537,8.54412 23.7747222,8.50512 23.8537963,8.50512 C24.4436111,8.50512 24.9439815,8.47912 25.3536111,8.42842 C25.764537,8.37642 26.0549074,8.29062 26.2247222,8.16972 C26.394537,8.04882 26.6434259,7.66922 26.9726852,7.03092 L27.2228704,6.57072 C27.3071296,6.41732 27.4536111,6.34062 27.6610185,6.34062" id="Fill-32" fill="#FEFEFE"></path>
                                    <path d="M28.5399074,11.20002 C28.3675,11.47042 28.0810185,11.79412 27.6830556,12.17112 C27.2708333,11.83962 26.9558333,11.54972 26.7419444,11.29752 C26.9558333,11.10252 27.2630556,10.78142 27.6610185,10.33422 C27.7452778,10.42782 28.0382407,10.71512 28.5399074,11.20002 Z M26.3880556,11.40282 C26.2156481,11.67712 25.9343519,12.00342 25.5441667,12.38042 C25.1176852,12.03592 24.8026852,11.74472 24.5978704,11.50682 C24.8480556,11.27412 25.1552778,10.95302 25.5169444,10.54352 C25.5999074,10.63192 25.8915741,10.91792 26.3880556,11.40282 Z M27.6610185,6.34062 C27.7919444,6.34062 27.9086111,6.37832 28.0110185,6.45242 C27.8386111,6.86712 27.6882407,7.21292 27.5573148,7.49242 C27.4276852,7.77192 27.3486111,7.92792 27.3213889,7.96042 C27.6415741,8.16582 27.9397222,8.30622 28.2158333,8.38552 C28.4919444,8.46482 28.7913889,8.50512 29.1167593,8.50512 C29.1958333,8.50512 29.2360185,8.54412 29.2360185,8.62342 L29.2360185,9.47492 C29.2360185,9.55422 29.1958333,9.59452 29.1167593,9.59452 C28.240463,9.59452 27.4873148,9.31762 26.8612037,8.76252 L26.630463,9.07062 C26.534537,9.17722 26.1897222,9.29162 25.5973148,9.41252 C25.0049074,9.53342 24.4241667,9.59452 23.8537963,9.59452 C23.7747222,9.59452 23.734537,9.55422 23.734537,9.47492 L23.734537,8.62342 C23.734537,8.54412 23.7747222,8.50512 23.8537963,8.50512 C24.4436111,8.50512 24.9439815,8.47912 25.3536111,8.42842 C25.764537,8.37642 26.0549074,8.29062 26.2247222,8.16972 C26.394537,8.04882 26.6434259,7.66922 26.9726852,7.03092 L27.2228704,6.57072 C27.3071296,6.41732 27.4536111,6.34062 27.6610185,6.34062 Z" id="Stroke-34" stroke="#FEFEFE" stroke-width="0.2"></path>
                                    <path d="M29.3373889,9.59413 C29.2583148,9.59413 29.2181296,9.55513 29.2181296,9.47583 L29.2181296,8.62303 C29.2181296,8.54373 29.2583148,8.50473 29.3373889,8.50473 C29.8753519,8.50473 30.3951667,8.38123 30.8968333,8.13423 C30.7710926,7.12933 30.6207222,5.31843 30.4444259,2.70283 L30.3044259,0.79573 C30.5883148,0.50323 30.9085,0.23803 31.2662778,0.00013 C31.3259074,1.30793 31.3751667,3.36323 31.4127593,6.16603 L31.4620185,8.12773 C31.8923889,8.37863 32.3875741,8.50473 32.9436852,8.50473 C33.0279444,8.50473 33.0694259,8.54373 33.0694259,8.62303 L33.0694259,9.47583 C33.0694259,9.55513 33.0279444,9.59413 32.9436852,9.59413 C32.2475741,9.59413 31.7018333,9.42383 31.3077593,9.08453 C30.9603519,9.27953 30.6466481,9.41343 30.3679444,9.48623 C30.0892407,9.55773 29.7457222,9.59413 29.3373889,9.59413" id="Fill-36" fill="#FEFEFE"></path>
                                    <path d="M29.3373889,9.59413 C29.2583148,9.59413 29.2181296,9.55513 29.2181296,9.47583 L29.2181296,8.62303 C29.2181296,8.54373 29.2583148,8.50473 29.3373889,8.50473 C29.8753519,8.50473 30.3951667,8.38123 30.8968333,8.13423 C30.7710926,7.12933 30.6207222,5.31843 30.4444259,2.70283 L30.3044259,0.79573 C30.5883148,0.50323 30.9085,0.23803 31.2662778,0.00013 C31.3259074,1.30793 31.3751667,3.36323 31.4127593,6.16603 L31.4620185,8.12773 C31.8923889,8.37863 32.3875741,8.50473 32.9436852,8.50473 C33.0279444,8.50473 33.0694259,8.54373 33.0694259,8.62303 L33.0694259,9.47583 C33.0694259,9.55513 33.0279444,9.59413 32.9436852,9.59413 C32.2475741,9.59413 31.7018333,9.42383 31.3077593,9.08453 C30.9603519,9.27953 30.6466481,9.41343 30.3679444,9.48623 C30.0892407,9.55773 29.7457222,9.59413 29.3373889,9.59413 Z" id="Stroke-38" stroke="#FEFEFE" stroke-width="0.2"></path>
                                    <path d="M33.0174444,9.59413 C32.9383704,9.59413 32.8981852,9.55513 32.8981852,9.47583 L32.8981852,8.62303 C32.8981852,8.54373 32.9383704,8.50473 33.0174444,8.50473 C33.6305926,8.50473 34.223,8.49043 34.7920741,8.46313 C34.5652222,8.31363 34.3668889,8.10953 34.1970741,7.84823 C34.0272593,7.58823 33.9442963,7.31133 33.9442963,7.01753 C33.9442963,6.61323 34.0544815,6.18683 34.2748519,5.73963 C34.4952222,5.29243 34.7791111,4.93233 35.1265185,4.65803 C35.4752222,4.38243 35.8394815,4.24593 36.2205926,4.24593 C36.5498519,4.24593 36.8661481,4.32783 37.1668889,4.49293 C37.4689259,4.65933 37.8189259,4.91543 38.2181852,5.26513 L37.9667037,5.71883 C37.5920741,5.57453 37.3172593,5.48353 37.1474444,5.44713 C36.975037,5.40943 36.7857778,5.39123 36.5822593,5.39123 C35.9976296,5.39123 35.3870741,5.56543 34.7518889,5.91383 C34.7518889,6.32333 34.8491111,6.69773 35.0461481,7.03443 C35.2444815,7.37243 35.530963,7.64413 35.9068889,7.84823 C36.2841111,8.05363 36.7261481,8.16933 37.2368889,8.19793 C37.5985556,8.12383 37.9446667,8.03413 38.2739259,7.92883 C38.6044815,7.82483 39.065963,7.65583 39.6596667,7.42313 C39.7905926,7.54403 39.8541111,7.71303 39.8541111,7.93273 L39.8411481,8.07833 C39.7854074,8.40073 39.5870741,8.60223 39.2487407,8.68673 C38.1170741,8.97013 37.2589259,9.16513 36.6794815,9.26913 C36.100037,9.37443 35.5037407,9.45503 34.8931852,9.51093 C34.2839259,9.56683 33.6578148,9.59413 33.0174444,9.59413" id="Fill-40" fill="#FEFEFE"></path>
                                    <path d="M33.0174444,9.59413 C32.9383704,9.59413 32.8981852,9.55513 32.8981852,9.47583 L32.8981852,8.62303 C32.8981852,8.54373 32.9383704,8.50473 33.0174444,8.50473 C33.6305926,8.50473 34.223,8.49043 34.7920741,8.46313 C34.5652222,8.31363 34.3668889,8.10953 34.1970741,7.84823 C34.0272593,7.58823 33.9442963,7.31133 33.9442963,7.01753 C33.9442963,6.61323 34.0544815,6.18683 34.2748519,5.73963 C34.4952222,5.29243 34.7791111,4.93233 35.1265185,4.65803 C35.4752222,4.38243 35.8394815,4.24593 36.2205926,4.24593 C36.5498519,4.24593 36.8661481,4.32783 37.1668889,4.49293 C37.4689259,4.65933 37.8189259,4.91543 38.2181852,5.26513 L37.9667037,5.71883 C37.5920741,5.57453 37.3172593,5.48353 37.1474444,5.44713 C36.975037,5.40943 36.7857778,5.39123 36.5822593,5.39123 C35.9976296,5.39123 35.3870741,5.56543 34.7518889,5.91383 C34.7518889,6.32333 34.8491111,6.69773 35.0461481,7.03443 C35.2444815,7.37243 35.530963,7.64413 35.9068889,7.84823 C36.2841111,8.05363 36.7261481,8.16933 37.2368889,8.19793 C37.5985556,8.12383 37.9446667,8.03413 38.2739259,7.92883 C38.6044815,7.82483 39.065963,7.65583 39.6596667,7.42313 C39.7905926,7.54403 39.8541111,7.71303 39.8541111,7.93273 L39.8411481,8.07833 C39.7854074,8.40073 39.5870741,8.60223 39.2487407,8.68673 C38.1170741,8.97013 37.2589259,9.16513 36.6794815,9.26913 C36.100037,9.37443 35.5037407,9.45503 34.8931852,9.51093 C34.2839259,9.56683 33.6578148,9.59413 33.0174444,9.59413 Z" id="Stroke-42" stroke="#FEFEFE" stroke-width="0.2"></path>
                                    <path d="M50.4300741,10.36906 L50.0684074,8.05766 C49.6652593,5.63706 49.3995185,3.95096 49.2711852,2.99936 C49.1441481,2.04776 49.0806296,1.41986 49.0806296,1.11696 C49.0806296,0.79586 49.1545185,0.54756 49.3035926,0.37076 C49.4513704,0.19266 49.6885926,0.07046 50.0126667,0.00026 C50.0269259,0.06006 50.0398889,0.11596 50.0554444,0.16796 C50.0684074,0.21866 50.223963,0.72826 50.5208148,1.69676 L50.1876667,1.99056 L50.2148889,2.21416 L50.6802593,6.45216 C50.7645185,7.07096 50.828037,7.66376 50.8695185,8.23186 L50.876,8.26046 C51.1819259,8.42296 51.5319259,8.50486 51.9208148,8.50486 C51.9998889,8.50486 52.0387778,8.54386 52.0387778,8.62316 L52.0387778,9.47596 C52.0387778,9.55526 51.9998889,9.59426 51.9208148,9.59426 C51.5772963,9.59426 51.2532222,9.51756 50.946,9.36416 L50.958963,9.83086 C50.958963,10.42236 50.7774815,10.98656 50.4093333,11.52086 C50.0424815,12.05646 49.5395185,12.49326 48.8978519,12.82996 C48.2574815,13.16796 47.5963704,13.33696 46.9145185,13.33696 C46.1017407,13.33696 45.4691481,13.10296 45.0141481,12.63496 C44.5591481,12.16696 44.331,11.50526 44.331,10.64856 C44.331,10.37296 44.3491481,10.11426 44.3841481,9.86986 C44.4178519,9.62546 44.4943333,9.26796 44.6097037,8.79866 L45.1321111,8.92346 C45.0258148,9.34206 44.9713704,9.68266 44.9713704,9.94266 C44.9713704,10.64076 45.1463704,11.18416 45.4937778,11.57286 C45.8424815,11.96286 46.3272963,12.15656 46.9482222,12.15656 C47.3993333,12.15656 47.8672963,12.07726 48.356,11.91866 C48.8421111,11.76136 49.2724815,11.54426 49.6445185,11.26996 C50.0152593,10.99436 50.2784074,10.69406 50.4300741,10.36906" id="Fill-44" fill="#FEFEFE"></path>
                                    <path d="M50.4300741,10.36906 L50.0684074,8.05766 C49.6652593,5.63706 49.3995185,3.95096 49.2711852,2.99936 C49.1441481,2.04776 49.0806296,1.41986 49.0806296,1.11696 C49.0806296,0.79586 49.1545185,0.54756 49.3035926,0.37076 C49.4513704,0.19266 49.6885926,0.07046 50.0126667,0.00026 C50.0269259,0.06006 50.0398889,0.11596 50.0554444,0.16796 C50.0684074,0.21866 50.223963,0.72826 50.5208148,1.69676 L50.1876667,1.99056 L50.2148889,2.21416 L50.6802593,6.45216 C50.7645185,7.07096 50.828037,7.66376 50.8695185,8.23186 L50.876,8.26046 C51.1819259,8.42296 51.5319259,8.50486 51.9208148,8.50486 C51.9998889,8.50486 52.0387778,8.54386 52.0387778,8.62316 L52.0387778,9.47596 C52.0387778,9.55526 51.9998889,9.59426 51.9208148,9.59426 C51.5772963,9.59426 51.2532222,9.51756 50.946,9.36416 L50.958963,9.83086 C50.958963,10.42236 50.7774815,10.98656 50.4093333,11.52086 C50.0424815,12.05646 49.5395185,12.49326 48.8978519,12.82996 C48.2574815,13.16796 47.5963704,13.33696 46.9145185,13.33696 C46.1017407,13.33696 45.4691481,13.10296 45.0141481,12.63496 C44.5591481,12.16696 44.331,11.50526 44.331,10.64856 C44.331,10.37296 44.3491481,10.11426 44.3841481,9.86986 C44.4178519,9.62546 44.4943333,9.26796 44.6097037,8.79866 L45.1321111,8.92346 C45.0258148,9.34206 44.9713704,9.68266 44.9713704,9.94266 C44.9713704,10.64076 45.1463704,11.18416 45.4937778,11.57286 C45.8424815,11.96286 46.3272963,12.15656 46.9482222,12.15656 C47.3993333,12.15656 47.8672963,12.07726 48.356,11.91866 C48.8421111,11.76136 49.2724815,11.54426 49.6445185,11.26996 C50.0152593,10.99436 50.2784074,10.69406 50.4300741,10.36906 Z" id="Stroke-46" stroke="#FEFEFE" stroke-width="0.2"></path>
                                    <path d="M57.782537,8.50486 C59.0217963,8.50486 60.2921667,8.09796 61.5910556,7.28286 C61.3032778,6.77976 60.9571667,6.38846 60.5540185,6.10636 C60.1495741,5.82426 59.7516111,5.68386 59.3562407,5.68386 C58.9051296,5.68386 58.3697593,5.90356 57.747537,6.34426 C57.1253148,6.78366 56.4512407,7.43366 55.7214259,8.29556 C56.4642037,8.43466 57.1512407,8.50486 57.782537,8.50486 M63.1997593,9.59426 C62.7953148,9.59426 62.3947593,9.51236 61.9955,9.34986 C61.5949444,9.18606 61.2682778,8.97286 61.0129074,8.70766 C60.5903148,8.98196 60.0743889,9.19906 59.4638333,9.35636 C58.8532778,9.51496 58.2440185,9.59426 57.6360556,9.59426 C56.9490185,9.59426 56.2438333,9.52016 55.5192037,9.37066 C54.7945741,9.22116 54.2203148,9.02876 53.792537,8.79086 L53.5488333,9.07036 C53.2338333,9.42006 52.7140185,9.59426 51.9893889,9.59426 C51.9116111,9.59426 51.8701296,9.55526 51.8701296,9.47596 L51.8701296,8.62316 C51.8701296,8.54386 51.9116111,8.50486 51.9893889,8.50486 C52.4158704,8.50486 52.7555,8.42686 53.0056852,8.27086 C53.2571667,8.11486 53.5099444,7.81326 53.7640185,7.36736 L53.9869815,6.96826 C54.0855,6.80056 54.2371667,6.71736 54.4406852,6.71736 C54.5742037,6.71736 54.6856852,6.76156 54.7751296,6.84996 C54.5742037,7.33486 54.4329074,7.66506 54.3499444,7.84186 C54.5819815,7.95366 54.8192037,8.04596 55.0603148,8.12136 C56.8803148,5.70076 58.4306852,4.49046 59.7114259,4.49046 C59.9797593,4.49046 60.3116111,4.59966 60.7069815,4.81806 C61.1023519,5.03776 61.4536481,5.31856 61.7647593,5.66306 C62.0771667,6.00756 62.2314259,6.31046 62.2314259,6.57046 C62.2314259,7.14766 62.0486481,7.66246 61.6817963,8.11356 C62.113463,8.37486 62.6190185,8.50486 63.1997593,8.50486 C63.2827222,8.50486 63.3242037,8.54386 63.3242037,8.62316 L63.3242037,9.47596 C63.3242037,9.55526 63.2827222,9.59426 63.1997593,9.59426" id="Fill-48" fill="#FEFEFE"></path>
                                    <path d="M57.782537,8.50486 C59.0217963,8.50486 60.2921667,8.09796 61.5910556,7.28286 C61.3032778,6.77976 60.9571667,6.38846 60.5540185,6.10636 C60.1495741,5.82426 59.7516111,5.68386 59.3562407,5.68386 C58.9051296,5.68386 58.3697593,5.90356 57.747537,6.34426 C57.1253148,6.78366 56.4512407,7.43366 55.7214259,8.29556 C56.4642037,8.43466 57.1512407,8.50486 57.782537,8.50486 Z M63.1997593,9.59426 C62.7953148,9.59426 62.3947593,9.51236 61.9955,9.34986 C61.5949444,9.18606 61.2682778,8.97286 61.0129074,8.70766 C60.5903148,8.98196 60.0743889,9.19906 59.4638333,9.35636 C58.8532778,9.51496 58.2440185,9.59426 57.6360556,9.59426 C56.9490185,9.59426 56.2438333,9.52016 55.5192037,9.37066 C54.7945741,9.22116 54.2203148,9.02876 53.792537,8.79086 L53.5488333,9.07036 C53.2338333,9.42006 52.7140185,9.59426 51.9893889,9.59426 C51.9116111,9.59426 51.8701296,9.55526 51.8701296,9.47596 L51.8701296,8.62316 C51.8701296,8.54386 51.9116111,8.50486 51.9893889,8.50486 C52.4158704,8.50486 52.7555,8.42686 53.0056852,8.27086 C53.2571667,8.11486 53.5099444,7.81326 53.7640185,7.36736 L53.9869815,6.96826 C54.0855,6.80056 54.2371667,6.71736 54.4406852,6.71736 C54.5742037,6.71736 54.6856852,6.76156 54.7751296,6.84996 C54.5742037,7.33486 54.4329074,7.66506 54.3499444,7.84186 C54.5819815,7.95366 54.8192037,8.04596 55.0603148,8.12136 C56.8803148,5.70076 58.4306852,4.49046 59.7114259,4.49046 C59.9797593,4.49046 60.3116111,4.59966 60.7069815,4.81806 C61.1023519,5.03776 61.4536481,5.31856 61.7647593,5.66306 C62.0771667,6.00756 62.2314259,6.31046 62.2314259,6.57046 C62.2314259,7.14766 62.0486481,7.66246 61.6817963,8.11356 C62.113463,8.37486 62.6190185,8.50486 63.1997593,8.50486 C63.2827222,8.50486 63.3242037,8.54386 63.3242037,8.62316 L63.3242037,9.47596 C63.3242037,9.55526 63.2827222,9.59426 63.1997593,9.59426 Z" id="Stroke-50" stroke="#FEFEFE" stroke-width="0.2"></path>
                                    <path d="M63.2715741,9.59413 C63.1925,9.59413 63.1523148,9.55513 63.1523148,9.47583 L63.1523148,8.62303 C63.1523148,8.54373 63.1925,8.50473 63.2715741,8.50473 C64.6689815,8.50473 65.7669444,8.38383 66.565463,8.14203 L67.3575,7.86903 C67.8967593,7.66493 68.3763889,7.52453 68.7937963,7.45043 C68.4217593,7.26453 68.0536111,7.02663 67.6919444,6.73803 C67.3069444,6.43513 66.9958333,6.22453 66.7560185,6.10623 C66.5175,5.98793 66.2712037,5.92813 66.0210185,5.92813 C65.5673148,5.92813 65.1576852,6.04513 64.7960185,6.27783 L64.4615741,6.48713 C64.3228704,6.34673 64.2541667,6.16083 64.2541667,5.92813 C64.2541667,5.56933 64.4110185,5.28203 64.7273148,5.06233 C65.0423148,4.84393 65.4584259,4.73473 65.9730556,4.73473 C66.2737963,4.73473 66.5797222,4.79973 66.8882407,4.92973 C67.1967593,5.05973 67.5558333,5.27423 67.9641667,5.57193 C68.4606481,5.93983 68.8832407,6.21543 69.2319444,6.40003 C69.5793519,6.58333 69.9332407,6.71463 70.2897222,6.79393 C70.6462037,6.87323 71.1673148,6.91223 71.8491667,6.91223 L71.3060185,7.96783 C71.0091667,7.93013 70.7434259,7.90413 70.5049074,7.88983 L70.4569444,7.88333 L70.1639815,7.88983 C69.8347222,7.88983 69.5197222,7.93923 69.2215741,8.03673 C68.9208333,8.13423 68.4567593,8.34743 67.825463,8.67243 C67.1150926,9.04033 66.4734259,9.28603 65.8991667,9.40823 C65.3262037,9.53303 64.4499074,9.59413 63.2715741,9.59413" id="Fill-52" fill="#FEFEFE"></path>
                                    <path d="M63.2715741,9.59413 C63.1925,9.59413 63.1523148,9.55513 63.1523148,9.47583 L63.1523148,8.62303 C63.1523148,8.54373 63.1925,8.50473 63.2715741,8.50473 C64.6689815,8.50473 65.7669444,8.38383 66.565463,8.14203 L67.3575,7.86903 C67.8967593,7.66493 68.3763889,7.52453 68.7937963,7.45043 C68.4217593,7.26453 68.0536111,7.02663 67.6919444,6.73803 C67.3069444,6.43513 66.9958333,6.22453 66.7560185,6.10623 C66.5175,5.98793 66.2712037,5.92813 66.0210185,5.92813 C65.5673148,5.92813 65.1576852,6.04513 64.7960185,6.27783 L64.4615741,6.48713 C64.3228704,6.34673 64.2541667,6.16083 64.2541667,5.92813 C64.2541667,5.56933 64.4110185,5.28203 64.7273148,5.06233 C65.0423148,4.84393 65.4584259,4.73473 65.9730556,4.73473 C66.2737963,4.73473 66.5797222,4.79973 66.8882407,4.92973 C67.1967593,5.05973 67.5558333,5.27423 67.9641667,5.57193 C68.4606481,5.93983 68.8832407,6.21543 69.2319444,6.40003 C69.5793519,6.58333 69.9332407,6.71463 70.2897222,6.79393 C70.6462037,6.87323 71.1673148,6.91223 71.8491667,6.91223 L71.3060185,7.96783 C71.0091667,7.93013 70.7434259,7.90413 70.5049074,7.88983 L70.4569444,7.88333 L70.1639815,7.88983 C69.8347222,7.88983 69.5197222,7.93923 69.2215741,8.03673 C68.9208333,8.13423 68.4567593,8.34743 67.825463,8.67243 C67.1150926,9.04033 66.4734259,9.28603 65.8991667,9.40823 C65.3262037,9.53303 64.4499074,9.59413 63.2715741,9.59413 Z" id="Stroke-54" stroke="#FEFEFE" stroke-width="0.2"></path>
                                    <path d="M73.6558148,4.8321 L73.6558148,5.7252 C73.6558148,6.6469 73.6234074,7.8975 73.5585926,9.4757 L72.903963,9.594 C72.843037,6.2517 72.7134074,3.4775 72.5137778,1.2714 L72.5072963,1.0894 C72.5072963,0.7865 72.5824815,0.546 72.7328519,0.3666 C72.8832222,0.1872 73.1217407,0.065 73.4471111,0 C73.4613704,0.0611 73.4743333,0.117 73.4885926,0.1677 C73.5028519,0.2197 73.6584074,0.7293 73.9552593,1.6965 L73.5728519,2.0254 L73.578037,2.0956 C73.6298889,3.1187 73.6558148,4.0313 73.6558148,4.8321" id="Fill-56" fill="#FEFEFE"></path>
                                    <path d="M73.6558148,4.8321 L73.6558148,5.7252 C73.6558148,6.6469 73.6234074,7.8975 73.5585926,9.4757 L72.903963,9.594 C72.843037,6.2517 72.7134074,3.4775 72.5137778,1.2714 L72.5072963,1.0894 C72.5072963,0.7865 72.5824815,0.546 72.7328519,0.3666 C72.8832222,0.1872 73.1217407,0.065 73.4471111,0 C73.4613704,0.0611 73.4743333,0.117 73.4885926,0.1677 C73.5028519,0.2197 73.6584074,0.7293 73.9552593,1.6965 L73.5728519,2.0254 L73.578037,2.0956 C73.6298889,3.1187 73.6558148,4.0313 73.6558148,4.8321 Z" id="Stroke-58" stroke="#FEFEFE" stroke-width="0.2"></path>
                                </g>
                            </g>
                        </g>
                    </g>
                </g>
            </g>
        </g>
    </g>
</svg>