<?xml version="1.0" encoding="UTF-8"?>
<svg width="84px" height="84px" viewBox="0 0 84 84" version="1.1" xmlns="http://www.w3.org/2000/svg" xmlns:xlink="http://www.w3.org/1999/xlink">
    <title>Group 16</title>
    <defs>
        <rect id="path-1" x="0" y="0" width="80" height="80" rx="12"></rect>
        <filter x="-3.1%" y="-3.1%" width="108.8%" height="108.8%" filterUnits="objectBoundingBox" id="filter-2">
            <feOffset dx="1" dy="1" in="SourceAlpha" result="shadowOffsetOuter1"></feOffset>
            <feGaussianBlur stdDeviation="1" in="shadowOffsetOuter1" result="shadowBlurOuter1"></feGaussianBlur>
            <feColorMatrix values="0 0 0 0 0   0 0 0 0 0   0 0 0 0 0  0 0 0 0.1 0" type="matrix" in="shadowBlurOuter1"></feColorMatrix>
        </filter>
        <filter x="-16.0%" y="-16.0%" width="132.0%" height="132.0%" filterUnits="objectBoundingBox" id="filter-3">
            <feOffset dx="0" dy="1" in="SourceAlpha" result="shadowOffsetOuter1"></feOffset>
            <feGaussianBlur stdDeviation="1.5" in="shadowOffsetOuter1" result="shadowBlurOuter1"></feGaussianBlur>
            <feColorMatrix values="0 0 0 0 1   0 0 0 0 0.545098039   0 0 0 0 0.521568627  0 0 0 0.3 0" type="matrix" in="shadowBlurOuter1" result="shadowMatrixOuter1"></feColorMatrix>
            <feMerge>
                <feMergeNode in="shadowMatrixOuter1"></feMergeNode>
                <feMergeNode in="SourceGraphic"></feMergeNode>
            </feMerge>
        </filter>
    </defs>
    <g id="Page-1" stroke="none" stroke-width="1" fill="none" fill-rule="evenodd">
        <g id="Landing-Page" transform="translate(-1194.000000, -2131.000000)">
            <g id="Group-20" transform="translate(0.000000, 1927.000000)">
                <g id="Group-19" transform="translate(800.000000, 47.000000)">
                    <g id="Group-18" transform="translate(0.000000, 158.000000)">
                        <g id="Group-16" transform="translate(395.000000, 0.000000)">
                            <g id="Rectangle">
                                <use fill="black" fill-opacity="1" filter="url(#filter-2)" xlink:href="#path-1"></use>
                                <use fill="#FFFFFF" fill-rule="evenodd" xlink:href="#path-1"></use>
                            </g>
                            <g id="calendar-(1)" filter="url(#filter-3)" transform="translate(15.000000, 15.000000)" fill="#FF8B85" fill-rule="nonzero">
                                <path d="M11.4582062,27.0832062 C5.14068604,27.0832062 0,32.2238922 0,38.5417938 C0,44.859314 5.14068604,50 11.4582062,50 C17.7761078,50 22.9167938,44.859314 22.9167938,38.5417938 C22.9167938,32.2238922 17.7761078,27.0832062 11.4582062,27.0832062 Z M11.4582062,47.9167938 C6.28852842,47.9167938 2.08320615,43.7114716 2.08320615,38.5417938 C2.08320615,33.3717346 6.28852842,29.1667938 11.4582062,29.1667938 C16.6282654,29.1667938 20.8332062,33.3717346 20.8332062,38.5417938 C20.8332062,43.7114716 16.6282654,47.9167938 11.4582062,47.9167938 Z" id="Shape"></path>
                                <path d="M10.4167938,38.5417938 L6.25,38.5417938 L6.25,40.625 L11.4582062,40.625 C12.0342255,40.625 12.5,40.1592255 12.5,39.5832062 L12.5,33.3332062 L10.4167938,33.3332062 L10.4167938,38.5417938 Z" id="Path"></path>
                                <path d="M47.9167938,4.16679385 L43.75,4.16679385 L43.75,2.08320615 C43.75,0.934219336 42.8157807,0 41.6667938,0 L39.5832062,0 C38.4342193,0 37.5,0.934219336 37.5,2.08320615 L37.5,4.16679385 L14.5832062,4.16679385 L14.5832062,2.08320615 C14.5832062,0.934219336 13.6489868,0 12.5,0 L10.4167938,0 C9.26780703,0 8.33320615,0.934219336 8.33320615,2.08320615 L8.33320615,4.16679385 L4.16679385,4.16679385 C3.01780703,4.16679385 2.08320615,5.10101318 2.08320615,6.25 L2.08320615,27.0832062 L4.16679385,27.0832062 L4.16679385,12.5 L41.6667938,12.5 L41.6667938,10.4167938 L4.16679385,10.4167938 L4.16679385,6.25 L8.33320615,6.25 C8.33320615,7.39898682 9.26780703,8.33320615 10.4167938,8.33320615 L12.5,8.33320615 C13.6489868,8.33320615 14.5832062,7.39898682 14.5832062,6.25 L37.5,6.25 C37.5,7.39898682 38.4342193,8.33320615 39.5832062,8.33320615 L41.6667938,8.33320615 C42.8157807,8.33320615 43.75,7.39898682 43.75,6.25 L47.9167938,6.25 L47.9167938,10.4167938 L43.75,10.4167938 L43.75,12.5 L47.9167938,12.5 L47.9167938,43.75 L23.9582062,43.75 L23.9582062,45.8332062 L47.9167938,45.8332062 C49.0657807,45.8332062 50,44.8989868 50,43.75 L50,6.25 C50,5.10101318 49.0657807,4.16679385 47.9167938,4.16679385 L47.9167938,4.16679385 Z M10.4167938,6.25 L10.4167938,2.08320615 L12.5,2.08320615 L12.5019073,6.25 L10.4167938,6.25 Z M39.5832062,6.25 L39.5832062,2.08320615 L41.6667938,2.08320615 L41.6687012,6.25 L39.5832062,6.25 Z" id="Shape"></path>
                                <path d="M12.5,22.9167938 C13.6489868,22.9167938 14.5832062,21.982193 14.5832062,20.8332062 L14.5832062,18.75 C14.5832062,17.6010132 13.6489868,16.6667938 12.5,16.6667938 L8.33320615,16.6667938 C7.18421934,16.6667938 6.25,17.6010132 6.25,18.75 L6.25,20.8332062 C6.25,21.982193 7.18421934,22.9167938 8.33320615,22.9167938 L12.5,22.9167938 Z M8.33320615,18.75 L12.5,18.75 L12.5019073,20.8332062 L8.33320615,20.8332062 L8.33320615,18.75 Z" id="Shape"></path>
                                <path d="M25,20.8332062 L25,18.75 C25,17.6010132 24.0657807,16.6667938 22.9167938,16.6667938 L18.75,16.6667938 C17.6010132,16.6667938 16.6667938,17.6010132 16.6667938,18.75 L16.6667938,20.8332062 C16.6667938,21.982193 17.6010132,22.9167938 18.75,22.9167938 L22.9167938,22.9167938 C24.0657807,22.9167938 25,21.982193 25,20.8332062 Z M18.75,20.8332062 L18.75,18.75 L22.9167938,18.75 L22.9187012,20.8332062 L18.75,20.8332062 Z" id="Shape"></path>
                                <path d="M29.1667938,22.9167938 L33.3332062,22.9167938 C34.482193,22.9167938 35.4167938,21.982193 35.4167938,20.8332062 L35.4167938,18.75 C35.4167938,17.6010132 34.482193,16.6667938 33.3332062,16.6667938 L29.1667938,16.6667938 C28.017807,16.6667938 27.0832062,17.6010132 27.0832062,18.75 L27.0832062,20.8332062 C27.0832062,21.982193 28.017807,22.9167938 29.1667938,22.9167938 Z M29.1667938,18.75 L33.3332062,18.75 L33.335495,20.8332062 L29.1667938,20.8332062 L29.1667938,18.75 Z" id="Shape"></path>
                                <path d="M39.5832062,22.9167938 L43.75,22.9167938 C44.8989868,22.9167938 45.8332062,21.982193 45.8332062,20.8332062 L45.8332062,18.75 C45.8332062,17.6010132 44.8989868,16.6667938 43.75,16.6667938 L39.5832062,16.6667938 C38.4342193,16.6667938 37.5,17.6010132 37.5,18.75 L37.5,20.8332062 C37.5,21.982193 38.4342193,22.9167938 39.5832062,22.9167938 L39.5832062,22.9167938 Z M39.5832062,18.75 L43.75,18.75 L43.7519073,20.8332062 L39.5832062,20.8332062 L39.5832062,18.75 Z" id="Shape"></path>
                                <path d="M27.0832062,29.1667938 C27.0832062,30.3157807 28.017807,31.25 29.1667938,31.25 L33.3332062,31.25 C34.482193,31.25 35.4167938,30.3157807 35.4167938,29.1667938 L35.4167938,27.0832062 C35.4167938,25.9342193 34.482193,25 33.3332062,25 L29.1667938,25 C28.017807,25 27.0832062,25.9342193 27.0832062,27.0832062 L27.0832062,29.1667938 Z M29.1667938,27.0832062 L33.3332062,27.0832062 L33.335495,29.1667938 L29.1667938,29.1667938 L29.1667938,27.0832062 Z" id="Shape"></path>
                                <path d="M37.5,29.1667938 C37.5,30.3157807 38.4342193,31.25 39.5832062,31.25 L43.75,31.25 C44.8989868,31.25 45.8332062,30.3157807 45.8332062,29.1667938 L45.8332062,27.0832062 C45.8332062,25.9342193 44.8989868,25 43.75,25 L39.5832062,25 C38.4342193,25 37.5,25.9342193 37.5,27.0832062 L37.5,29.1667938 Z M39.5832062,27.0832062 L43.75,27.0832062 L43.7519073,29.1667938 L39.5832062,29.1667938 L39.5832062,27.0832062 Z" id="Shape"></path>
                                <path d="M27.0832062,37.5 C27.0832062,38.6489868 28.017807,39.5832062 29.1667938,39.5832062 L33.3332062,39.5832062 C34.482193,39.5832062 35.4167938,38.6489868 35.4167938,37.5 L35.4167938,35.4167938 C35.4167938,34.267807 34.482193,33.3332062 33.3332062,33.3332062 L29.1667938,33.3332062 C28.017807,33.3332062 27.0832062,34.267807 27.0832062,35.4167938 L27.0832062,37.5 Z M29.1667938,35.4167938 L33.3332062,35.4167938 L33.335495,37.5 L29.1667938,37.5 L29.1667938,35.4167938 Z" id="Shape"></path>
                                <path d="M37.5,37.5 C37.5,38.6489868 38.4342193,39.5832062 39.5832062,39.5832062 L43.75,39.5832062 C44.8989868,39.5832062 45.8332062,38.6489868 45.8332062,37.5 L45.8332062,35.4167938 C45.8332062,34.267807 44.8989868,33.3332062 43.75,33.3332062 L39.5832062,33.3332062 C38.4342193,33.3332062 37.5,34.267807 37.5,35.4167938 L37.5,37.5 Z M39.5832062,35.4167938 L43.75,35.4167938 L43.7519073,37.5 L39.5832062,37.5 L39.5832062,35.4167938 Z" id="Shape"></path>
                            </g>
                        </g>
                    </g>
                </g>
            </g>
        </g>
    </g>
</svg>