<?xml version="1.0" encoding="UTF-8"?>
<svg width="84px" height="84px" viewBox="0 0 84 84" version="1.1" xmlns="http://www.w3.org/2000/svg" xmlns:xlink="http://www.w3.org/1999/xlink">
    <title>Group 16 Copy</title>
    <defs>
        <rect id="path-1" x="0" y="0" width="80" height="80" rx="12"></rect>
        <filter x="-3.1%" y="-3.1%" width="108.8%" height="108.8%" filterUnits="objectBoundingBox" id="filter-2">
            <feOffset dx="1" dy="1" in="SourceAlpha" result="shadowOffsetOuter1"></feOffset>
            <feGaussianBlur stdDeviation="1" in="shadowOffsetOuter1" result="shadowBlurOuter1"></feGaussianBlur>
            <feColorMatrix values="0 0 0 0 0   0 0 0 0 0   0 0 0 0 0  0 0 0 0.1 0" type="matrix" in="shadowBlurOuter1"></feColorMatrix>
        </filter>
        <path d="M0.518127509,4.76607473 C1.7580278,1.60291983 4.96855511,-0.332664978 8.34491795,0.0474054169 C11.6875172,0.423675108 14.3670105,2.97657768 14.9107913,6.2874492 L14.9266142,6.38800919 L20.8862065,4.40203353 C21.1985912,2.31332746 23.0255218,0.789405359 25.136532,0.856652466 C27.2475421,0.923899573 28.9737626,2.56100878 29.152557,4.66536156 C29.3295635,6.74867081 27.9344144,8.63643401 25.898548,9.08381875 L25.8366599,9.0969337 L25.8366599,13.3731147 C28.3193971,13.5493667 30.6789649,14.5187205 32.5679418,16.1370037 L32.6336449,16.1937185 L36.639078,12.1887734 C34.6033909,9.64298541 34.4448389,6.07403006 36.2467583,3.35777899 C38.0486776,0.641527933 41.3986134,-0.600275529 44.5358123,0.285070506 C47.6730112,1.17041654 49.8793761,3.9802585 49.9952237,7.23772083 C50.1099129,10.4626085 48.1496965,13.3954217 45.135174,14.5268459 L45.0435031,14.5605785 L45.7310083,20.0600273 C48.1747121,20.4302788 49.9820016,22.5291367 49.9852131,25.0005594 C49.9818323,27.5043059 48.1288109,29.6156421 45.6552256,29.9507372 L45.5800798,29.9603465 L43.6587085,35.0837494 C47.1640696,35.6360258 49.8013766,38.5712005 49.9766196,42.1152296 C50.1518626,45.6592588 47.8169844,48.8402607 44.3832047,49.7356114 C40.9837629,50.6220087 37.4301968,49.0275927 35.8284922,45.9117087 L35.7805553,45.8168233 L29.084224,45.8168233 C28.6567407,47.9109088 26.7129204,49.341158 24.5863275,49.1263435 C22.4597347,48.911529 20.8412573,47.1214398 20.8412573,44.9841727 C20.8412573,42.8469057 22.4597347,41.0568165 24.5863275,40.842002 C26.6916545,40.6293357 28.617846,42.0289962 29.0709459,44.0888998 L29.084224,44.1515222 L35.1852727,44.1515222 C34.6802586,41.9496151 35.2000421,39.6387824 36.5962911,37.8659036 L36.6388698,37.8123453 L32.6335409,33.8074002 C28.3007633,37.5696475 21.8806094,37.6072699 17.5060843,33.9202676 L17.3741534,33.8074002 L13.3688244,37.8123453 C15.4944951,40.4709634 15.5638045,44.2273902 13.5376546,46.9626023 C11.5115047,49.6978144 7.8976995,50.7262993 4.73480848,49.4678824 C1.57191746,48.2094655 -0.347359718,44.9795375 0.0596529005,41.6001206 C0.462595393,38.2544978 3.04555692,35.5924727 6.36829407,35.082009 L6.46920803,35.0672005 L5.2003681,29.9918831 C5.13999672,29.9940688 5.07972943,29.9964627 5.01894169,29.9964627 C2.36777242,29.9968845 0.17788631,27.9266353 0.0297045752,25.2797953 C-0.11847716,22.6329553 1.82664729,20.3312424 4.46129901,20.0357821 C7.06960421,19.7432764 9.45449942,21.5179405 9.93067435,24.089733 L9.94451791,24.1679088 L13.3761106,24.1679088 C13.5546216,21.6514921 14.5481422,19.2617287 16.2062794,17.360366 C16.1745515,17.3387374 16.1443561,17.3149681 16.1159014,17.2892299 L16.0880347,17.2628418 L12.1912702,13.3662454 C9.53728824,15.4875777 5.78908095,15.5613274 3.05369549,13.5460362 C0.318310034,11.530745 -0.721772783,7.92922963 0.518127509,4.76607473 Z M9.17383276,45.8333333 L5.82616724,45.8333333 C4.98284763,45.8346768 4.27198852,46.4599908 4.16666667,47.2931289 C6.17062007,48.6800681 8.82937993,48.6800681 10.8333333,47.2931289 C10.7294949,46.4717252 10.0370564,45.8523325 9.20938583,45.8337603 L9.17383276,45.8333333 Z M44.1738328,45.8333333 L40.8261672,45.8333333 C39.9828476,45.8346768 39.2719885,46.4599908 39.1666667,47.2931289 C41.1706201,48.6800681 43.8293799,48.6800681 45.8333333,47.2931289 C45.7294949,46.4717252 45.0370564,45.8523325 44.2093858,45.8337603 L44.1738328,45.8333333 Z M25,42.5 C23.6192881,42.5 22.5,43.6192881 22.5,45 C22.5,46.3807119 23.6192881,47.5 25,47.5 C26.3800456,47.4983928 27.4983928,46.3800456 27.5,45 C27.5,43.6192881 26.3807119,42.5 25,42.5 Z M11.4316831,38.1940501 C9.20444686,36.1575389 5.79555314,36.1575389 3.56831692,38.1940501 C1.3410807,40.2305612 1.02949325,43.6324463 2.84957166,46.0412491 C3.23781549,45.2625821 3.91263322,44.6654407 4.73172173,44.375748 C3.79915485,42.9823412 4.04267155,41.1118992 5.30076868,40.004921 C6.55886581,38.8979428 8.44113419,38.8979428 9.69923132,40.004921 C10.9573285,41.1118992 11.2008451,42.9823412 10.2682783,44.375748 C11.0710575,44.6597448 11.7352188,45.2390727 12.126796,45.995156 L12.1504283,46.0416667 C13.9705067,43.6324463 13.6589193,40.2305612 11.4316831,38.1940501 Z M44.2681478,36.942169 C41.8466243,36.1700989 39.2050922,37.0581541 37.7376624,39.1376492 C36.2702327,41.2171443 36.3145532,44.0095984 37.8472332,46.0412489 C38.2355677,45.2622023 38.9105431,44.6647699 39.7298231,44.374936 C38.7970383,42.9808501 39.0406119,41.1094964 40.299003,40.0019786 C41.5573941,38.8944608 43.4401023,38.8944608 44.6984934,40.0019786 C45.9568845,41.1094964 46.2004581,42.9808501 45.2676733,44.374936 C46.0870272,44.6648699 46.7620138,45.2624621 47.1502632,46.0416667 C47.9188762,45.0278518 48.3344801,43.7892829 48.3333333,42.5159344 C48.3340063,39.9687852 46.6896713,37.7142391 44.2681478,36.942169 Z M7.5,40.8333333 C6.57952542,40.8333333 5.83333333,41.5795254 5.83333333,42.5 C5.83442392,43.4200225 6.57997753,44.1655761 7.5,44.1666667 C8.42047458,44.1666667 9.16666667,43.4204746 9.16666667,42.5 C9.16666667,41.5795254 8.42047458,40.8333333 7.5,40.8333333 Z M42.5,40.8333333 C41.5795254,40.8333333 40.8333333,41.5795254 40.8333333,42.5 C40.8344239,43.4200225 41.5799775,44.1655761 42.5,44.1666667 C43.4204746,44.1666667 44.1666667,43.4204746 44.1666667,42.5 C44.1666667,41.5795254 43.4204746,40.8333333 42.5,40.8333333 Z M40.0896855,25.8333333 L36.6673544,25.8333333 C36.4915658,28.3231758 35.5247606,30.6894964 33.9107323,32.5838794 L33.8541667,32.6497705 L37.8485818,36.6666667 C38.9944609,35.7423774 40.3864447,35.1804627 41.848608,35.0509192 L41.9256279,35.0445008 L43.8541667,29.8730901 C41.9275312,29.4107297 40.4564729,27.8481526 40.1001415,25.8927087 L40.0896855,25.8333333 Z M13.4261107,25.8333333 L9.99076071,25.8333333 C9.6974939,27.5512208 8.53703142,28.992834 6.92655061,29.6450597 L6.875,29.6656067 L8.21921301,35.0501221 C9.66389137,35.176497 11.0399447,35.7217093 12.1795658,36.6182993 L12.2403897,36.6666667 L16.25,32.6498362 C14.6147423,30.7664575 13.6274915,28.4070852 13.432588,25.9201385 L13.4261107,25.8333333 Z M25,15 C19.4771525,15 15,19.4771525 15,25 C15.0061999,30.5202774 19.4797226,34.9938001 25,35 C30.5228475,35 35,30.5228475 35,25 C35,19.4771525 30.5228475,15 25,15 Z M24.7059587,20.0114288 C25.8607826,19.9253989 26.9987019,20.3279583 27.8424867,21.121032 C28.6856072,21.9100828 29.1648622,23.0126519 29.1666667,24.1673631 C29.1689854,25.0676355 28.8770134,25.9440067 28.3351896,26.6630068 C27.8050407,27.3753981 27.5131551,28.2362718 27.5001332,29.1231414 L27.499678,29.1836486 L27.499678,30.8335233 C27.499678,32.2141302 26.3804022,33.3333333 24.9997055,33.3333333 C23.6328158,33.3333333 22.5221447,32.2364024 22.500068,30.8748622 L22.499733,30.8335233 L22.499733,29.1840652 C22.4915959,28.2593872 22.1879169,27.3615485 21.6330759,26.6217599 C20.7404806,25.3974562 20.5829171,23.7851304 21.2216019,22.4112028 C21.8602868,21.0372752 23.1945327,20.1183427 24.7059587,20.0114288 Z M25.8333333,30 L24.1666667,30 L24.1666667,30.8249158 C24.1666667,31.289802 24.5397627,31.6666667 25,31.6666667 C25.4515536,31.6666667 25.8192232,31.3038891 25.8329368,30.8511342 L25.8333333,30.8249158 L25.8333333,30 Z M26.7054057,22.3370985 C26.0010534,21.6814814 24.981738,21.4880063 24.0852648,21.8397725 C23.1887916,22.1915387 22.5747228,23.0259357 22.5068065,23.9845824 C22.463108,24.5711634 22.6308698,25.1540255 22.9798558,25.6281181 C23.556023,26.404137 23.9380445,27.3058041 24.0946554,28.2580521 L24.1065506,28.3333333 L25.8934522,28.3333333 C26.0293047,27.3865297 26.3946849,26.4875002 26.957399,25.7140612 L27.0022332,25.6532626 C27.7660989,24.6342862 27.6381584,23.2049316 26.7054057,22.3370985 Z M45,21.6666667 C43.1590508,21.6666667 41.6666667,23.1590508 41.6666667,25 C41.6666667,26.8409492 43.1590508,28.3333333 45,28.3333333 C46.8409492,28.3333333 48.3333333,26.8409492 48.3333333,25 C48.3312667,23.1599075 46.8400925,21.6687333 45,21.6666667 Z M5,21.6666667 C3.15905083,21.6666667 1.66666667,23.1590508 1.66666667,25 C1.66873329,26.8400925 3.15990754,28.3312667 5,28.3333333 C6.84094917,28.3333333 8.33333333,26.8409492 8.33333333,25 C8.33333333,23.1590508 6.84094917,21.6666667 5,21.6666667 Z M37.8447639,13.3333333 L33.8541667,17.3501638 C35.4816702,19.2335425 36.4642396,21.5929148 36.6582189,24.0798615 L36.6646655,24.1666667 L40.0837255,24.1666667 C40.4305514,22.1234851 41.9880232,20.5069103 44.0013513,20.0921993 L44.0625,20.080001 L43.4214781,14.9215889 C41.4483996,15.1730512 39.4587282,14.6157395 37.898998,13.3768275 L37.8447639,13.3333333 Z M20.2440765,17.7440817 C20.5625877,17.4255637 21.0747859,17.4187867 21.4015391,17.7237508 L21.4225823,17.7440817 L22.2558902,18.5774074 C22.4942274,18.8157375 22.5655277,19.1741765 22.4365421,19.485577 C22.3075566,19.7969775 22.0036884,20 21.6666373,20 C21.4560994,20.0002688 21.2537269,19.9206143 21.1000636,19.7778277 L21.0773845,19.7559384 L20.2440765,18.9226126 C19.9186412,18.5971703 19.9186412,18.0695241 20.2440765,17.7440817 Z M28.5773906,17.7440969 C28.7879116,17.5335759 29.0947526,17.4513581 29.3823296,17.5284142 C29.6699066,17.6054702 29.8945298,17.8300934 29.9715858,18.1176704 C30.0459848,18.3953309 29.9719049,18.6909499 29.7772222,18.9004925 L29.7559031,18.9226094 L28.9225904,19.7559221 C28.5971532,20.0813593 28.0695152,20.0813593 27.7440779,19.7559221 C27.4255649,19.437409 27.418788,18.925208 27.7237473,18.5984529 L27.7440779,18.5774096 L28.5773906,17.7440969 Z M25,15.8333333 C25.4515536,15.8333333 25.8192232,16.1924831 25.8329368,16.6407105 L25.8333333,16.6666667 L25.8333333,18.3333333 C25.8333333,18.7935706 25.4602373,19.1666667 25,19.1666667 C24.5484464,19.1666667 24.1807768,18.8075169 24.1670632,18.3592895 L24.1666667,18.3333333 L24.1666667,16.6666667 C24.1666667,16.2064294 24.5397627,15.8333333 25,15.8333333 Z M20.9768246,6.14583333 L14.9537247,8.15206301 C14.8354927,9.61522788 14.2886172,11.0105718 13.3822331,12.1642839 L13.3333333,12.2258577 L17.2413544,16.1315017 C17.2775023,16.1679411 17.3102418,16.2076054 17.3391645,16.25 C19.2244321,14.6071893 21.5884632,13.6153693 24.080678,13.4201758 L24.1666667,13.413761 L24.1666667,9.12717012 C22.6445697,8.81321096 21.4229927,7.68340378 20.9906426,6.19451088 L20.9768246,6.14583333 Z M9.17383276,10.8333333 L5.82616724,10.8333333 C4.98284763,10.8346768 4.27198852,11.4599908 4.16666667,12.2931289 C6.17062007,13.6800681 8.82937993,13.6800681 10.8333333,12.2931289 C10.7294949,11.4717252 10.0370564,10.8523325 9.20938583,10.8337603 L9.17383276,10.8333333 Z M44.1738328,10.8333333 L40.8261672,10.8333333 C39.9828476,10.8346768 39.2719885,11.4599908 39.1666667,12.2931289 C41.1706201,13.6800681 43.8293799,13.6800681 45.8333333,12.2931289 C45.7294949,11.4717252 45.0370564,10.8523325 44.2093858,10.8337603 L44.1738328,10.8333333 Z M12.2631336,4.13810457 C10.7956954,2.058122 8.15315352,1.16986453 5.73093344,1.94238699 C3.30871336,2.71490945 1.66455305,4.97033158 1.66666667,7.51765112 C1.66561066,8.7902367 2.08112079,10.0280417 2.84948284,11.0412491 C3.23773426,10.2625819 3.91256516,9.66544034 4.73166968,9.37574753 C3.79908458,7.98234044 4.04260604,6.11189793 5.30072775,5.00491943 C6.55884947,3.89794094 8.44115463,3.89794094 9.69927635,5.00491943 C10.9573981,6.11189793 11.2009195,7.98234044 10.2683344,9.37574753 C11.0875129,9.66554032 11.762355,10.2628415 12.1505213,11.0416667 C13.6850155,9.01086006 13.7305718,6.21808713 12.2631336,4.13810457 Z M42.4998421,1.66666667 C40.2861167,1.66539837 38.2626731,2.92139472 37.2767744,4.90874306 C36.2908757,6.89609139 36.512648,9.27185602 37.8492301,11.0412489 C38.2374892,10.2621424 38.9123336,9.66466399 39.7314545,9.37480776 C38.7988508,7.98061463 39.0423771,6.10911698 40.3005239,5.00151403 C41.5586707,3.89391107 43.4410135,3.89391107 44.6991603,5.00151403 C45.9573071,6.10911698 46.2008334,7.98061463 45.2682297,9.37480776 C46.0874245,9.66476403 46.7622801,10.2624022 47.1504541,11.0416667 C48.4872857,9.27227324 48.7092025,6.89633744 47.7232717,4.90883587 C46.7373409,2.92133429 44.7137186,1.66527805 42.4998421,1.66666667 Z M7.5,5.83333333 C6.57952542,5.83333333 5.83333333,6.57952542 5.83333333,7.5 C5.83442392,8.42002247 6.57997753,9.16557608 7.5,9.16666667 C8.42047458,9.16666667 9.16666667,8.42047458 9.16666667,7.5 C9.16666667,6.57952542 8.42047458,5.83333333 7.5,5.83333333 Z M42.5,5.83333333 C41.5795254,5.83333333 40.8333333,6.57952542 40.8333333,7.5 C40.8344239,8.42002247 41.5799775,9.16557608 42.5,9.16666667 C43.4204746,9.16666667 44.1666667,8.42047458 44.1666667,7.5 C44.1666667,6.57952542 43.4204746,5.83333333 42.5,5.83333333 Z M25,2.5 C23.6199544,2.50160724 22.5016072,3.61995442 22.5,5 C22.5,6.38071187 23.6192881,7.5 25,7.5 C26.3807119,7.5 27.5,6.38071187 27.5,5 C27.5,3.61928813 26.3807119,2.5 25,2.5 Z" id="path-3"></path>
        <filter x="-10.0%" y="-8.0%" width="120.0%" height="120.0%" filterUnits="objectBoundingBox" id="filter-4">
            <feOffset dx="0" dy="1" in="SourceAlpha" result="shadowOffsetOuter1"></feOffset>
            <feGaussianBlur stdDeviation="1.5" in="shadowOffsetOuter1" result="shadowBlurOuter1"></feGaussianBlur>
            <feColorMatrix values="0 0 0 0 1   0 0 0 0 0.545098039   0 0 0 0 0.521568627  0 0 0 0.3 0" type="matrix" in="shadowBlurOuter1"></feColorMatrix>
        </filter>
    </defs>
    <g id="Page-1" stroke="none" stroke-width="1" fill="none" fill-rule="evenodd">
        <g id="Landing-Page" transform="translate(-1194.000000, -2355.000000)">
            <g id="Group-20" transform="translate(0.000000, 1927.000000)">
                <g id="Group-19" transform="translate(800.000000, 47.000000)">
                    <g id="Group-17-Copy" transform="translate(0.000000, 382.000000)">
                        <g id="Group-16-Copy" transform="translate(395.000000, 0.000000)">
                            <g id="Rectangle">
                                <use fill="black" fill-opacity="1" filter="url(#filter-2)" xlink:href="#path-1"></use>
                                <use fill="#FFFFFF" fill-rule="evenodd" xlink:href="#path-1"></use>
                            </g>
                            <g id="Shape" transform="translate(15.000000, 15.000000)">
                                <use fill="black" fill-opacity="1" filter="url(#filter-4)" xlink:href="#path-3"></use>
                                <use fill="#FF8B85" fill-rule="evenodd" xlink:href="#path-3"></use>
                            </g>
                        </g>
                    </g>
                </g>
            </g>
        </g>
    </g>
</svg>