<?xml version="1.0" encoding="UTF-8"?>
<svg width="84px" height="84px" viewBox="0 0 84 84" version="1.1" xmlns="http://www.w3.org/2000/svg" xmlns:xlink="http://www.w3.org/1999/xlink">
    <title>Group 16 Copy</title>
    <defs>
        <rect id="path-1" x="0" y="0" width="80" height="80" rx="12"></rect>
        <filter x="-3.1%" y="-3.1%" width="108.8%" height="108.8%" filterUnits="objectBoundingBox" id="filter-2">
            <feOffset dx="1" dy="1" in="SourceAlpha" result="shadowOffsetOuter1"></feOffset>
            <feGaussianBlur stdDeviation="1" in="shadowOffsetOuter1" result="shadowBlurOuter1"></feGaussianBlur>
            <feColorMatrix values="0 0 0 0 0   0 0 0 0 0   0 0 0 0 0  0 0 0 0.1 0" type="matrix" in="shadowBlurOuter1"></feColorMatrix>
        </filter>
        <filter x="-16.0%" y="-16.0%" width="132.0%" height="132.0%" filterUnits="objectBoundingBox" id="filter-3">
            <feOffset dx="0" dy="1" in="SourceAlpha" result="shadowOffsetOuter1"></feOffset>
            <feGaussianBlur stdDeviation="1.5" in="shadowOffsetOuter1" result="shadowBlurOuter1"></feGaussianBlur>
            <feColorMatrix values="0 0 0 0 1   0 0 0 0 0.545098039   0 0 0 0 0.521568627  0 0 0 0.3 0" type="matrix" in="shadowBlurOuter1" result="shadowMatrixOuter1"></feColorMatrix>
            <feMerge>
                <feMergeNode in="shadowMatrixOuter1"></feMergeNode>
                <feMergeNode in="SourceGraphic"></feMergeNode>
            </feMerge>
        </filter>
    </defs>
    <g id="Page-1" stroke="none" stroke-width="1" fill="none" fill-rule="evenodd">
        <g id="Landing-Page" transform="translate(-1194.000000, -2243.000000)">
            <g id="Group-20" transform="translate(0.000000, 1927.000000)">
                <g id="Group-19" transform="translate(800.000000, 47.000000)">
                    <g id="Group-17" transform="translate(0.000000, 270.000000)">
                        <g id="Group-16-Copy" transform="translate(395.000000, 0.000000)">
                            <g id="Rectangle">
                                <use fill="black" fill-opacity="1" filter="url(#filter-2)" xlink:href="#path-1"></use>
                                <use fill="#FFFFFF" fill-rule="evenodd" xlink:href="#path-1"></use>
                            </g>
                            <g id="clipboard" filter="url(#filter-3)" transform="translate(15.000000, 15.000000)" fill="#FF8B85" fill-rule="nonzero">
                                <path d="M28.2258065,0 C28.6399194,0 28.9803242,0.311520737 29.0268407,0.712444747 L29.0322581,0.806451613 L29.0322581,1.61290323 L37.9032258,1.61290323 C38.3173387,1.61290323 38.6577436,1.92442396 38.70426,2.32534797 L38.7096774,2.41935484 L38.7096774,22.5806452 L41.1290323,22.5806452 C41.5431452,22.5806452 41.88355,22.8921659 41.9300665,23.2930899 L41.9354839,23.3870968 L41.9354839,35.483871 L49.1935484,35.483871 C49.6076613,35.483871 49.9480662,35.7946963 49.9945826,36.1961667 L50,36.2903226 L50,49.1935484 C50,49.6076613 49.6891746,49.9480662 49.2877043,49.9945826 L49.1935484,50 L16.9354839,50 C16.521371,50 16.1809661,49.6891746 16.1344496,49.2877043 L16.1290323,49.1935484 L16.1290323,48.3870968 L0.806451613,48.3870968 C0.39233871,48.3870968 0.0519338381,48.0762714 0.00541739161,47.674801 L0,47.5806452 L0,2.41935484 C0,2.00599078 0.310825379,1.66494404 0.712295742,1.61833208 L0.806451613,1.61290323 L9.67741935,1.61290323 L9.67741935,0.806451613 C9.67741935,0.393087558 9.98824473,0.0520408163 10.3897151,0.00542885357 L10.483871,0 L28.2258065,0 Z M22.5806452,37.0967742 L17.7419355,37.0967742 L17.7419355,48.3870968 L32.2580645,48.3870968 L32.2580645,37.0967742 L27.4193548,37.0967742 L27.4193548,41.1290323 C27.4193548,41.5431452 27.1085295,41.88355 26.7070591,41.9300665 L26.6129032,41.9354839 L23.3870968,41.9354839 C22.9729839,41.9354839 22.632579,41.6246585 22.5860626,41.2231881 L22.5806452,41.1290323 L22.5806452,37.0967742 Z M38.7096774,37.0967742 L33.8709677,37.0967742 L33.8709677,48.3870968 L48.3870968,48.3870968 L48.3870968,37.0967742 L43.5483871,37.0967742 L43.5483871,41.1290323 C43.5483871,41.5431452 43.2375617,41.88355 42.8360914,41.9300665 L42.7419355,41.9354839 L39.516129,41.9354839 C39.1020161,41.9354839 38.7616113,41.6246585 38.7150948,41.2231881 L38.7096774,41.1290323 L38.7096774,37.0967742 Z M30.6451613,45.1612903 L30.6451613,46.7741935 L27.4193548,46.7741935 L27.4193548,45.1612903 L30.6451613,45.1612903 Z M46.7741935,45.1612903 L46.7741935,46.7741935 L43.5483871,46.7741935 L43.5483871,45.1612903 L46.7741935,45.1612903 Z M9.67741935,3.22580645 L1.61290323,3.22580645 L1.61290323,46.7741935 L16.1290323,46.7741935 L16.1290323,43.5483871 L4.03225806,43.5483871 C3.61814516,43.5483871 3.27774029,43.2375617 3.23122384,42.8360914 L3.22580645,42.7419355 L3.22580645,5.64516129 C3.22580645,5.23179724 3.53663183,4.89075049 3.93810219,4.84413853 L4.03225806,4.83870968 L9.67741935,4.83870968 L9.67741935,3.22580645 Z M9.67741935,6.4516129 L4.83870968,6.4516129 L4.83870968,41.9354839 L16.1290323,41.9354839 L16.1290323,36.2903226 C16.1290323,35.8762097 16.4398576,35.5358048 16.841328,35.4892884 L16.9354839,35.483871 L24.1935484,35.483871 L24.1935484,23.3870968 C24.1935484,22.9737327 24.5043738,22.632686 24.9058441,22.586074 L25,22.5806452 L33.8709677,22.5806452 L33.8709677,6.4516129 L29.0322581,6.4516129 L29.0322581,7.25806452 C29.0322581,7.67142857 28.7214327,8.01247531 28.3199623,8.05908728 L28.2258065,8.06451613 L10.483871,8.06451613 C10.0697581,8.06451613 9.72935319,7.75299539 9.68283675,7.35207138 L9.67741935,7.25806452 L9.67741935,6.4516129 Z M13.1395161,32.4943548 L14.2798387,33.6346774 L12.9032258,35.0112903 L12.9032258,39.516129 C12.9032258,39.9302419 12.5924004,40.2706468 12.1909301,40.3171633 L12.0967742,40.3225806 L7.25806452,40.3225806 C6.84395161,40.3225806 6.50354674,40.0117553 6.45703029,39.6102849 L6.4516129,39.516129 L6.4516129,34.6774194 C6.4516129,34.2633065 6.76243828,33.9229016 7.16390865,33.8763851 L7.25806452,33.8709677 L11.7629032,33.8709677 L13.1395161,32.4943548 Z M41.9354839,37.0967742 L40.3225806,37.0967742 L40.3225806,40.3225806 L41.9354839,40.3225806 L41.9354839,37.0967742 Z M25.8064516,37.0967742 L24.1935484,37.0967742 L24.1935484,40.3225806 L25.8064516,40.3225806 L25.8064516,37.0967742 Z M11.2903226,36.6241935 L9.20483871,38.7096774 L11.2903226,38.7096774 L11.2903226,36.6241935 Z M10.15,35.483871 L8.06451613,35.483871 L8.06451613,37.5693548 L10.15,35.483871 Z M30.6451613,24.1935484 L25.8064516,24.1935484 L25.8064516,35.483871 L40.3225806,35.483871 L40.3225806,24.1935484 L35.483871,24.1935484 L35.483871,28.2258065 C35.483871,28.6399194 35.1730456,28.9803242 34.7715752,29.0268407 L34.6774194,29.0322581 L31.4516129,29.0322581 C31.0375,29.0322581 30.6970951,28.7214327 30.6505787,28.3199623 L30.6451613,28.2258065 L30.6451613,24.1935484 Z M38.7096774,32.2580645 L38.7096774,33.8709677 L35.483871,33.8709677 L35.483871,32.2580645 L38.7096774,32.2580645 Z M22.5806452,30.6451613 L22.5806452,32.2580645 L16.1290323,32.2580645 L16.1290323,30.6451613 L22.5806452,30.6451613 Z M13.1395161,24.4298387 L14.2798387,25.5701613 L12.9032258,26.9467742 L12.9032258,31.4516129 C12.9032258,31.8657258 12.5924004,32.2061307 12.1909301,32.2526471 L12.0967742,32.2580645 L7.25806452,32.2580645 C6.84395161,32.2580645 6.50354674,31.9472391 6.45703029,31.5457688 L6.4516129,31.4516129 L6.4516129,26.6129032 C6.4516129,26.1987903 6.76243828,25.8583855 7.16390865,25.811869 L7.25806452,25.8064516 L11.7629032,25.8064516 L13.1395161,24.4298387 Z M11.2903226,28.5596774 L9.20483871,30.6451613 L11.2903226,30.6451613 L11.2903226,28.5596774 Z M10.15,27.4193548 L8.06451613,27.4193548 L8.06451613,29.5048387 L10.15,27.4193548 Z M22.5806452,25.8064516 L22.5806452,27.4193548 L16.1290323,27.4193548 L16.1290323,25.8064516 L22.5806452,25.8064516 Z M33.8709677,24.1935484 L32.2580645,24.1935484 L32.2580645,27.4193548 L33.8709677,27.4193548 L33.8709677,24.1935484 Z M13.1395161,16.3653226 L14.2798387,17.5056452 L12.9032258,18.8822581 L12.9032258,23.3870968 C12.9032258,23.8004608 12.5924004,24.1415076 12.1909301,24.1881195 L12.0967742,24.1935484 L7.25806452,24.1935484 C6.84395161,24.1935484 6.50354674,23.8820276 6.45703029,23.4811036 L6.4516129,23.3870968 L6.4516129,18.5483871 C6.4516129,18.135023 6.76243828,17.7939763 7.16390865,17.7473643 L7.25806452,17.7419355 L11.7629032,17.7419355 L13.1395161,16.3653226 Z M22.5806452,22.5806452 L22.5806452,24.1935484 L16.1290323,24.1935484 L16.1290323,22.5806452 L22.5806452,22.5806452 Z M11.2903226,20.4951613 L9.20483871,22.5806452 L11.2903226,22.5806452 L11.2903226,20.4951613 Z M37.0967742,3.22580645 L29.0322581,3.22580645 L29.0322581,4.83870968 L34.6774194,4.83870968 C35.0915323,4.83870968 35.4319371,5.15023041 35.4784536,5.55115442 L35.483871,5.64516129 L35.483871,22.5806452 L37.0967742,22.5806452 L37.0967742,3.22580645 Z M10.15,19.3548387 L8.06451613,19.3548387 L8.06451613,21.4403226 L10.15,19.3548387 Z M30.6451613,17.7419355 L30.6451613,19.3548387 L16.1290323,19.3548387 L16.1290323,17.7419355 L30.6451613,17.7419355 Z M13.1395161,8.30080645 L14.2798387,9.44112903 L12.9032258,10.8177419 L12.9032258,15.3225806 C12.9032258,15.7359447 12.5924004,16.0769914 12.1909301,16.1236034 L12.0967742,16.1290323 L7.25806452,16.1290323 C6.84395161,16.1290323 6.50354674,15.8175115 6.45703029,15.4165875 L6.4516129,15.3225806 L6.4516129,10.483871 C6.4516129,10.0705069 6.76243828,9.72946017 7.16390865,9.68284821 L7.25806452,9.67741935 L11.7629032,9.67741935 L13.1395161,8.30080645 Z M30.6451613,14.516129 L30.6451613,16.1290323 L16.1290323,16.1290323 L16.1290323,14.516129 L30.6451613,14.516129 Z M11.2903226,12.4306452 L9.20483871,14.516129 L11.2903226,14.516129 L11.2903226,12.4306452 Z M10.15,11.2903226 L8.06451613,11.2903226 L8.06451613,13.3758065 L10.15,11.2903226 Z M30.6451613,9.67741935 L30.6451613,11.2903226 L16.1290323,11.2903226 L16.1290323,9.67741935 L30.6451613,9.67741935 Z M27.4193548,1.61290323 L11.2903226,1.61290323 L11.2903226,6.4516129 L27.4193548,6.4516129 L27.4193548,1.61290323 Z" id="Shape"></path>
                            </g>
                        </g>
                    </g>
                </g>
            </g>
        </g>
    </g>
</svg>